<?xml version="1.0" standalone="no"?>
<!DOCTYPE svg PUBLIC "-//W3C//DTD SVG 1.1//EN" "http://www.w3.org/Graphics/SVG/1.1/DTD/svg11.dtd" >
<svg xmlns="http://www.w3.org/2000/svg">
<defs>
  <font id="pro" horiz-adv-x="1000">
    <font-face font-family="pro"
      units-per-em="1000" ascent="1000"
      descent="0" />
    <missing-glyph horiz-adv-x="0" />
    <glyph glyph-name="account-box-fill"
      unicode="&#xEA01;"
      horiz-adv-x="1000" d="M125 833.3333333333334L166.6666666666667 875H833.3333333333333L875 833.3333333333334V166.6666666666668L833.3333333333333 125H166.6666666666667L125 166.6666666666668zM375 604.1666666666667A125 125 0 1 1 625 604.1666666666667A125 125 0 0 1 375 604.1666666666667M416.6666666666667 416.6666666666668A166.6666666666667 166.6666666666667 0 0 1 250 250H750A166.6666666666667 166.6666666666667 0 0 1 583.3333333333333 416.6666666666668z" />
    <glyph glyph-name="account-box-line"
      unicode="&#xEA02;"
      horiz-adv-x="1000" d="M250 250A166.6666666666667 166.6666666666667 0 0 0 416.6666666666667 416.6666666666668H583.3333333333333A166.6666666666667 166.6666666666667 0 0 0 750 250H666.6666666666666A83.3333333333333 83.3333333333333 0 0 1 583.3333333333333 333.3333333333334H416.6666666666667A83.3333333333333 83.3333333333333 0 0 1 333.3333333333333 250zM500 750A145.8333333333334 145.8333333333334 0 1 1 500 458.3333333333334A145.8333333333334 145.8333333333334 0 0 1 500 750M437.5 604.1666666666667A62.5 62.5 0 1 0 562.5 604.1666666666667A62.5 62.5 0 0 0 437.5 604.1666666666667M125 833.3333333333334L166.6666666666667 875H833.3333333333333L875 833.3333333333334V166.6666666666668L833.3333333333333 125H166.6666666666667L125 166.6666666666668zM208.3333333333333 791.6666666666667V208.3333333333334H791.6666666666666V791.6666666666667z" />
    <glyph glyph-name="account-circle-fill"
      unicode="&#xEA03;"
      horiz-adv-x="1000" d="M500.0000000000001 916.6666666666666C269.8750000000001 916.6666666666666 83.3333333333334 730.125 83.3333333333334 500A415.4166666666667 415.4166666666667 0 0 1 199.5000000000001 211.3750000000001A415.4166666666667 415.4166666666667 0 0 1 500.0000000000001 83.3333333333334A415.4166666666667 415.4166666666667 0 0 1 800.5 211.3750000000001A415.4166666666667 415.4166666666667 0 0 1 916.6666666666669 500C916.6666666666669 730.125 730.125 916.6666666666666 500.0000000000001 916.6666666666666M261.9583333333334 331.4166666666668A373.75 373.75 0 0 0 500.0000000000001 416.6666666666668C590.4166666666667 416.6666666666668 673.3333333333333 384.6666666666667 738.0416666666667 331.4166666666668A291.25 291.25 0 0 0 500.0000000000001 208.3333333333334A291.25 291.25 0 0 0 261.9583333333334 331.4166666666668M500.0000000000001 500A125 125 0 1 1 500.0000000000001 750A125 125 0 0 1 500.0000000000001 500" />
    <glyph glyph-name="account-circle-line"
      unicode="&#xEA04;"
      horiz-adv-x="1000" d="M500.0000000000001 833.3333333333334A333.3333333333333 333.3333333333333 0 1 1 500.0000000000001 166.6666666666668A333.3333333333333 333.3333333333333 0 0 1 500.0000000000001 833.3333333333334M83.3333333333334 500C83.3333333333334 730.125 269.8750000000001 916.6666666666666 500.0000000000001 916.6666666666666S916.6666666666666 730.125 916.6666666666666 500S730.125 83.3333333333334 500.0000000000001 83.3333333333334S83.3333333333334 269.875 83.3333333333334 500M500.0000000000001 708.3333333333334A83.3333333333333 83.3333333333333 0 1 1 500.0000000000001 541.6666666666667A83.3333333333333 83.3333333333333 0 0 1 500.0000000000001 708.3333333333334M333.3333333333334 625A166.6666666666667 166.6666666666667 0 1 0 666.6666666666666 625A166.6666666666667 166.6666666666667 0 0 0 333.3333333333334 625M288.4166666666667 242.4166666666667A331.6666666666667 331.6666666666667 0 0 1 500.0000000000001 166.6666666666668A331.6666666666667 331.6666666666667 0 0 1 711.5833333333333 242.4166666666668A290.8333333333333 290.8333333333333 0 0 1 500.0000000000001 333.3333333333334A290.8333333333333 290.8333333333333 0 0 1 288.4166666666667 242.4166666666668M197.4583333333334 263.2916666666669A374.5833333333333 374.5833333333333 0 0 0 500.0000000000001 416.6666666666668A374.5833333333333 374.5833333333333 0 0 0 802.5833333333333 263.3333333333334L798.8333333333333 209.5833333333334A415.4166666666667 415.4166666666667 0 0 0 500.0000000000001 83.3333333333334A415.4166666666667 415.4166666666667 0 0 0 201.2083333333334 209.5833333333334z" />
    <glyph glyph-name="account-pin-box-fill"
      unicode="&#xEA05;"
      horiz-adv-x="1000" d="M125 833.3333333333334L166.6666666666667 875H833.3333333333333L875 833.3333333333334V166.6666666666668L833.3333333333333 125H600.5833333333333L500 24.4166666666666L399.4166666666667 125H166.6666666666667L125 166.6666666666668zM375 604.1666666666667A125 125 0 1 1 625 604.1666666666667A125 125 0 0 1 375 604.1666666666667M416.6666666666667 416.6666666666668A166.6666666666667 166.6666666666667 0 0 1 250 250H750A166.6666666666667 166.6666666666667 0 0 1 583.3333333333333 416.6666666666668z" />
    <glyph glyph-name="account-pin-box-line"
      unicode="&#xEA06;"
      horiz-adv-x="1000" d="M354.1666666666667 604.1666666666667A145.8333333333334 145.8333333333334 0 1 0 645.8333333333333 604.1666666666667A145.8333333333334 145.8333333333334 0 0 0 354.1666666666667 604.1666666666667M500 666.6666666666667A62.5 62.5 0 1 1 500 541.6666666666667A62.5 62.5 0 0 1 500 666.6666666666667M416.6666666666667 416.6666666666668A166.6666666666667 166.6666666666667 0 0 1 250 250H333.3333333333333A83.3333333333333 83.3333333333333 0 0 0 416.6666666666667 333.3333333333334H583.3333333333333A83.3333333333333 83.3333333333333 0 0 0 666.6666666666666 250H750A166.6666666666667 166.6666666666667 0 0 1 583.3333333333333 416.6666666666668zM125 833.3333333333334L166.6666666666667 875H833.3333333333333L875 833.3333333333334V166.6666666666668L833.3333333333333 125H600.5833333333333L500 24.4166666666666L399.4166666666667 125H166.6666666666667L125 166.6666666666668zM208.3333333333333 791.6666666666667V208.3333333333334H416.6666666666667L446.125 196.1250000000001L500 142.2500000000001L553.8749999999999 196.1250000000001L583.3333333333333 208.3333333333334H791.6666666666666V791.6666666666667z" />
    <glyph glyph-name="account-pin-circle-fill"
      unicode="&#xEA07;"
      horiz-adv-x="1000" d="M83.3333333333334 500C83.3333333333334 730.125 269.8750000000001 916.6666666666666 500.0000000000001 916.6666666666666S916.6666666666666 730.125 916.6666666666666 500C916.6666666666666 300.5416666666668 776.5416666666666 133.8750000000001 589.375 92.9166666666667L500.0000000000001 3.625L410.6250000000001 92.9166666666667C223.4583333333334 133.8750000000001 83.3333333333334 300.5416666666668 83.3333333333334 500M500.0000000000001 208.3333333333334A291.6666666666667 291.6666666666667 0 0 1 744.2916666666666 340.5833333333334A207.9166666666666 207.9166666666666 0 0 1 583.3333333333333 416.6666666666668H416.6666666666667A207.9166666666666 207.9166666666666 0 0 1 255.7083333333334 340.5833333333334A291.6666666666667 291.6666666666667 0 0 1 500.0000000000001 208.3333333333334M500.0000000000001 729.1666666666667A125 125 0 1 1 500.0000000000001 479.1666666666667A125 125 0 0 1 500.0000000000001 729.1666666666667" />
    <glyph glyph-name="account-pin-circle-line"
      unicode="&#xEA08;"
      horiz-adv-x="1000" d="M208.3333333333334 208.3333333333334A208.3333333333334 208.3333333333334 0 0 0 416.6666666666667 416.6666666666668H583.3333333333333A208.3333333333334 208.3333333333334 0 0 0 791.6666666666666 208.3333333333334H708.3333333333333A125 125 0 0 1 583.3333333333333 333.3333333333334H416.6666666666667A125 125 0 0 1 291.6666666666667 208.3333333333334zM500.0000000000001 833.3333333333334A333.3333333333333 333.3333333333333 0 0 1 438.7916666666668 172.2500000000001L451.5000000000001 169.9166666666668L500.0000000000001 121.4166666666668L548.5 169.9166666666669L561.2083333333333 172.2500000000002A333.3333333333333 333.3333333333333 0 0 1 500.0000000000001 833.3333333333334M83.3333333333334 500C83.3333333333334 730.125 269.8750000000001 916.6666666666666 500.0000000000001 916.6666666666666S916.6666666666666 730.125 916.6666666666666 500C916.6666666666666 300.5416666666668 776.5416666666666 133.8750000000001 589.375 92.9166666666667L500.0000000000001 3.625L410.6250000000001 92.9166666666667C223.4583333333334 133.8750000000001 83.3333333333334 300.5416666666668 83.3333333333334 500M500.0000000000001 666.6666666666667A62.5 62.5 0 1 1 500.0000000000001 541.6666666666667A62.5 62.5 0 0 1 500.0000000000001 666.6666666666667M354.1666666666667 604.1666666666667A145.8333333333334 145.8333333333334 0 1 0 645.8333333333333 604.1666666666667A145.8333333333334 145.8333333333334 0 0 0 354.1666666666667 604.1666666666667" />
    <glyph glyph-name="add-box-fill"
      unicode="&#xEA09;"
      horiz-adv-x="1000" d="M125 833.3333333333334L166.6666666666667 875H833.3333333333333L875 833.3333333333334V166.6666666666668L833.3333333333333 125H166.6666666666667L125 166.6666666666668zM458.3333333333333 291.6666666666668H541.6666666666666V458.3333333333334H708.3333333333333V541.6666666666667H541.6666666666666V708.3333333333334H458.3333333333333V541.6666666666667H291.6666666666667V458.3333333333334H458.3333333333333z" />
    <glyph glyph-name="add-box-line"
      unicode="&#xEA0A;"
      horiz-adv-x="1000" d="M458.3333333333333 458.3333333333334H291.6666666666667V541.6666666666667H458.3333333333333V708.3333333333334H541.6666666666666V541.6666666666667H708.3333333333333V458.3333333333334H541.6666666666666V291.6666666666668H458.3333333333333zM125 833.3333333333334L166.6666666666667 875H833.3333333333333L875 833.3333333333334V166.6666666666668L833.3333333333333 125H166.6666666666667L125 166.6666666666668zM208.3333333333333 791.6666666666667V208.3333333333334H791.6666666666666V791.6666666666667z" />
    <glyph glyph-name="add-circle-fill"
      unicode="&#xEA0B;"
      horiz-adv-x="1000" d="M500.0000000000001 83.3333333333334C730.125 83.3333333333334 916.6666666666666 269.875 916.6666666666666 500S730.125 916.6666666666666 500.0000000000001 916.6666666666666S83.3333333333334 730.125 83.3333333333334 500S269.8750000000001 83.3333333333334 500.0000000000001 83.3333333333334M458.3333333333334 291.6666666666668V458.3333333333334H291.6666666666667V541.6666666666667H458.3333333333334V708.3333333333334H541.6666666666666V541.6666666666667H708.3333333333333V458.3333333333334H541.6666666666666V291.6666666666668z" />
    <glyph glyph-name="add-circle-line"
      unicode="&#xEA0C;"
      horiz-adv-x="1000" d="M458.3333333333334 458.3333333333334H291.6666666666667V541.6666666666667H458.3333333333334V708.3333333333334H541.6666666666666V541.6666666666667H708.3333333333333V458.3333333333334H541.6666666666666V291.6666666666668H458.3333333333334zM83.3333333333334 500C83.3333333333334 730.125 269.8750000000001 916.6666666666666 500.0000000000001 916.6666666666666S916.6666666666666 730.125 916.6666666666666 500S730.125 83.3333333333334 500.0000000000001 83.3333333333334S83.3333333333334 269.875 83.3333333333334 500M500.0000000000001 833.3333333333334A333.3333333333333 333.3333333333333 0 1 1 500.0000000000001 166.6666666666668A333.3333333333333 333.3333333333333 0 0 1 500.0000000000001 833.3333333333334" />
    <glyph glyph-name="add-fill"
      unicode="&#xEA0D;"
      horiz-adv-x="1000" d="M437.5000000000001 437.5V208.3333333333334H562.5V437.5H791.6666666666667V562.5H562.5V791.6666666666667H437.5000000000001V562.5H208.3333333333334V437.5z" />
    <glyph glyph-name="add-line"
      unicode="&#xEA0E;"
      horiz-adv-x="1000" d="M458.3333333333334 458.3333333333334V208.3333333333334H541.6666666666667V458.3333333333334H791.6666666666667V541.6666666666667H541.6666666666667V791.6666666666667H458.3333333333334V541.6666666666667H208.3333333333334V458.3333333333334z" />
    <glyph glyph-name="admin-fill"
      unicode="&#xEA0F;"
      horiz-adv-x="1000" d="M479.1666666666667 916.6666666666666A208.3333333333334 208.3333333333334 0 1 1 479.1666666666667 500A208.3333333333334 208.3333333333334 0 0 1 479.1666666666667 916.6666666666666M104.1666666666667 208.3333333333334A208.3333333333334 208.3333333333334 0 0 0 312.5 416.6666666666668H479.1666666666667V83.3333333333334H104.1666666666667zM854.1666666666667 291.6666666666668H895.8333333333333V83.3333333333334H562.5V291.6666666666668H604.1666666666667V333.3333333333334A125 125 0 1 0 854.1666666666667 333.3333333333334zM770.8333333333333 291.6666666666668V333.3333333333334A41.6666666666667 41.6666666666667 0 1 1 687.5 333.3333333333334V291.6666666666668z" />
    <glyph glyph-name="admin-line"
      unicode="&#xEA10;"
      horiz-adv-x="1000" d="M479.1666666666667 833.3333333333334A125 125 0 1 1 479.1666666666667 583.3333333333334A125 125 0 0 1 479.1666666666667 833.3333333333334M270.8333333333333 708.3333333333334A208.3333333333334 208.3333333333334 0 1 0 687.5 708.3333333333334A208.3333333333334 208.3333333333334 0 0 0 270.8333333333333 708.3333333333334M538.1666666666667 416.6666666666668A208.3333333333334 208.3333333333334 0 0 1 520.8333333333333 333.3333333333334H312.5A125 125 0 0 1 187.5 208.3333333333334V83.3333333333334H104.1666666666667V208.3333333333334A208.3333333333334 208.3333333333334 0 0 0 312.5 416.6666666666668zM604.1666666666667 333.3333333333334A125 125 0 1 0 854.1666666666667 333.3333333333334V208.3333333333334H604.1666666666667zM729.1666666666667 375A41.6666666666667 41.6666666666667 0 0 1 687.5 333.3333333333334V291.6666666666668H770.8333333333333V333.3333333333334A41.6666666666667 41.6666666666667 0 0 1 729.1666666666667 375M562.5 291.6666666666668H895.8333333333333V83.3333333333334H562.5zM645.8333333333333 208.3333333333334V166.6666666666668H812.5V208.3333333333334z" />
    <glyph glyph-name="alert-fill"
      unicode="&#xEA11;"
      horiz-adv-x="1000" d="M395.8333333333333 895.8333333333334L62.5 270.8333333333334L166.6666666666667 104.1666666666667H833.3333333333333L937.5 270.8333333333334L604.1666666666666 895.8333333333334zM458.3333333333333 437.5V687.5H541.6666666666666V437.5zM458.3333333333333 270.8333333333334V354.1666666666668H541.6666666666666V270.8333333333334z" />
    <glyph glyph-name="alert-line"
      unicode="&#xEA12;"
      horiz-adv-x="1000" d="M458.3125 437.5V687.5H541.6458333333334V437.5zM458.3125 354.1666666666668V270.8333333333334H541.6458333333334V354.1666666666668zM391.6875 895.8333333333334H608.3125L944.3958333333334 268.5000000000001L834.8125000000001 104.1666666666669H165.1875L55.6041666666667 268.5000000000001zM441.6041666666667 812.5L152.6875 273.1666666666668L209.7708333333334 187.5H790.1875L847.2708333333334 273.1666666666668L558.3958333333334 812.5z" />
    <glyph glyph-name="aliens-fill"
      unicode="&#xEA13;"
      horiz-adv-x="1000" d="M253.8750000000001 808.625C318.2083333333334 872.9166666666667 406.5000000000001 916.6666666666666 500.0000000000001 916.6666666666666S681.7916666666667 872.9583333333334 746.125 808.625S854.1666666666667 656 854.1666666666667 562.5C854.1666666666667 472.25 812.9583333333333 345.1666666666667 752.6666666666667 241.5416666666668C722.25 189.2500000000001 685.5416666666667 140.4583333333335 644.25 104.2500000000001C603.3333333333335 68.2916666666667 554.25 41.6666666666667 500.0000000000001 41.6666666666667S396.6666666666667 68.3333333333334 355.7500000000001 104.25C314.5000000000001 140.4583333333334 277.7916666666667 189.25 247.3333333333334 241.5416666666667C187.0416666666667 345.1666666666668 145.8333333333334 472.25 145.8333333333334 562.5C145.8333333333334 656 189.5416666666667 744.2916666666667 253.8750000000001 808.625M250.0000000000001 541.6666666666667A208.3333333333334 208.3333333333334 0 0 1 458.3333333333334 333.3333333333334A208.3333333333334 208.3333333333334 0 0 1 250.0000000000001 541.6666666666667M750 541.6666666666667A208.3333333333334 208.3333333333334 0 0 1 541.6666666666667 333.3333333333334A208.3333333333334 208.3333333333334 0 0 1 750 541.6666666666667" />
    <glyph glyph-name="aliens-line"
      unicode="&#xEA14;"
      horiz-adv-x="1000" d="M750 541.6666666666667A208.3333333333334 208.3333333333334 0 0 0 541.6666666666667 333.3333333333334A208.3333333333334 208.3333333333334 0 0 0 750 541.6666666666667M250.0000000000001 541.6666666666667A208.3333333333334 208.3333333333334 0 0 1 458.3333333333334 333.3333333333334A208.3333333333334 208.3333333333334 0 0 1 250.0000000000001 541.6666666666667M253.8750000000001 808.625C318.2083333333334 872.9166666666667 406.5000000000001 916.6666666666666 500.0000000000001 916.6666666666666S681.7916666666667 872.9583333333334 746.125 808.625S854.1666666666667 656 854.1666666666667 562.5C854.1666666666667 472.25 812.9583333333333 345.1666666666667 752.6666666666667 241.5416666666668C722.25 189.2500000000001 685.5416666666667 140.4583333333335 644.25 104.2500000000001C603.3333333333335 68.2916666666667 554.25 41.6666666666667 500.0000000000001 41.6666666666667S396.6666666666667 68.3333333333334 355.7500000000001 104.25C314.5000000000001 140.4583333333334 277.7916666666667 189.25 247.3333333333334 241.5416666666667C187.0416666666667 345.1666666666668 145.8333333333334 472.25 145.8333333333334 562.5C145.8333333333334 656 189.5416666666667 744.2916666666667 253.8750000000001 808.625M312.7916666666667 749.7083333333334C261.1666666666667 698.0416666666667 229.1666666666667 630.0833333333334 229.1666666666667 562.5C229.1666666666667 491.6666666666667 263.6666666666668 379.1666666666668 319.3750000000001 283.4583333333334C346.875 236.1250000000001 378.25 195.3333333333335 410.7083333333333 166.8750000000001C443.4583333333334 138.1250000000001 473.6666666666667 125 500.0000000000001 125S556.5416666666667 138.1250000000001 589.2916666666667 166.875C621.75 195.3333333333334 653.0833333333335 236.125 680.625 283.4583333333333C736.3333333333335 379.1666666666668 770.8333333333333 491.6666666666667 770.8333333333333 562.5C770.8333333333333 630.0833333333334 738.8333333333333 698.0416666666667 687.2083333333333 749.7083333333334C635.5416666666667 801.3333333333334 567.5833333333333 833.3333333333334 500.0000000000001 833.3333333333334S364.4583333333334 801.3333333333334 312.7916666666667 749.7083333333334" />
    <glyph glyph-name="apps-fill"
      unicode="&#xEA15;"
      horiz-adv-x="1000" d="M291.6666677024677 875A166.6666666666667 166.6666666666667 0 1 1 291.6666677024677 541.6666666666667A166.6666666666667 166.6666666666667 0 0 1 291.6666677024677 875M291.6666677024677 458.3333333333334A166.6666666666667 166.6666666666667 0 1 1 291.6666677024677 125A166.6666666666667 166.6666666666667 0 0 1 291.6666677024677 458.3333333333334M708.3333343691343 458.3333333333334A166.6666666666667 166.6666666666667 0 1 1 708.3333343691343 125A166.6666666666667 166.6666666666667 0 0 1 708.3333343691343 458.3333333333334M708.3333343691343 875A166.6666666666667 166.6666666666667 0 1 1 708.3333343691343 541.6666666666667A166.6666666666667 166.6666666666667 0 0 1 708.3333343691343 875" />
    <glyph glyph-name="apps-line"
      unicode="&#xEA16;"
      horiz-adv-x="1000" d="M291.6666677024677 875A166.6666666666667 166.6666666666667 0 1 1 291.6666677024677 541.6666666666667A166.6666666666667 166.6666666666667 0 0 1 291.6666677024677 875M208.3333343691343 708.3333333333334A83.3333333333333 83.3333333333333 0 1 0 375.000001035801 708.3333333333334A83.3333333333333 83.3333333333333 0 0 0 208.3333343691343 708.3333333333334M291.6666677024677 458.3333333333334A166.6666666666667 166.6666666666667 0 1 1 291.6666677024677 125A166.6666666666667 166.6666666666667 0 0 1 291.6666677024677 458.3333333333334M208.3333343691343 291.6666666666668A83.3333333333333 83.3333333333333 0 1 0 375.000001035801 291.6666666666668A83.3333333333333 83.3333333333333 0 0 0 208.3333343691343 291.6666666666668M541.6666677024676 291.6666666666668A166.6666666666667 166.6666666666667 0 1 0 875.000001035801 291.6666666666668A166.6666666666667 166.6666666666667 0 0 0 541.6666677024676 291.6666666666668M708.3333343691343 375A83.3333333333333 83.3333333333333 0 1 1 708.3333343691343 208.3333333333334A83.3333333333333 83.3333333333333 0 0 1 708.3333343691343 375M708.3333343691343 875A166.6666666666667 166.6666666666667 0 1 1 708.3333343691343 541.6666666666667A166.6666666666667 166.6666666666667 0 0 1 708.3333343691343 875M625.000001035801 708.3333333333334A83.3333333333333 83.3333333333333 0 1 0 791.6666677024676 708.3333333333334A83.3333333333333 83.3333333333333 0 0 0 625.000001035801 708.3333333333334" />
    <glyph glyph-name="arrow-down-circle-fill"
      unicode="&#xEA17;"
      horiz-adv-x="1000" d="M500.0000000000001 916.6666666666666C730.125 916.6666666666666 916.6666666666666 730.125 916.6666666666666 500S730.125 83.3333333333334 500.0000000000001 83.3333333333334S83.3333333333334 269.875 83.3333333333334 500S269.8750000000001 916.6666666666666 500.0000000000001 916.6666666666666M666.6666666666666 500H541.6666666666666V666.6666666666667H458.3333333333334V500H333.3333333333334L500.0000000000001 333.3333333333334z" />
    <glyph glyph-name="arrow-down-circle-line"
      unicode="&#xEA18;"
      horiz-adv-x="1000" d="M666.6666666666666 500H541.6666666666666V666.6666666666667H458.3333333333334V500H333.3333333333334L500.0000000000001 333.3333333333334zM500.0000000000001 916.6666666666666C269.8750000000001 916.6666666666666 83.3333333333334 730.125 83.3333333333334 500S269.8750000000001 83.3333333333334 500.0000000000001 83.3333333333334S916.6666666666666 269.875 916.6666666666666 500S730.125 916.6666666666666 500.0000000000001 916.6666666666666M166.6666666666667 500A333.3333333333333 333.3333333333333 0 1 0 833.3333333333333 500A333.3333333333333 333.3333333333333 0 0 0 166.6666666666667 500" />
    <glyph glyph-name="arrow-down-double-fill"
      unicode="&#xEA19;"
      horiz-adv-x="1000" d="M262.2083333333334 762.2083333333334L291.6666666666667 833.3333333333334H708.3333333333333L737.7916666666667 762.2083333333334L529.4583333333335 553.875H470.5416666666667zM262.2083333333334 387.2083333333334L291.6666666666667 458.3333333333334H708.3333333333333L737.7916666666667 387.2083333333334L529.4583333333335 178.875H470.5416666666667z" />
    <glyph glyph-name="arrow-down-double-line"
      unicode="&#xEA1A;"
      horiz-adv-x="1000" d="M300.2916666666667 769.0416666666667L500 569.3333333333334L699.7083333333333 769.0416666666667L758.625 710.125L500 451.5L241.375 710.125zM300.2916666666667 519.0416666666667L500 319.3333333333335L699.7083333333333 519.0416666666667L758.625 460.1250000000001L500 201.5L241.375 460.125z" />
    <glyph glyph-name="arrow-down-fill"
      unicode="&#xEA1B;"
      horiz-adv-x="1000" d="M541.6666666666666 562.5H833.3333333333333L862.7916666666666 491.375L529.4583333333334 158.0416666666666H470.5416666666667L137.2083333333334 491.375L166.6666666666667 562.5H458.3333333333333V854.1666666666667H541.6666666666666z" />
    <glyph glyph-name="arrow-down-line"
      unicode="&#xEA1C;"
      horiz-adv-x="1000" d="M458.3333333333334 288.0833333333335L196.125 550.2916666666667L137.2083333333334 491.3750000000001L500 128.5833333333334L862.7916666666666 491.375L803.8749999999999 550.2916666666666L541.6666666666666 288.0833333333335V854.1666666666667H458.3333333333334z" />
    <glyph glyph-name="arrow-down-sm-fill"
      unicode="&#xEA1D;"
      horiz-adv-x="1000" d="M458.3333333333333 562.5H250L220.5416666666666 491.375L470.5416666666666 241.375H529.4583333333333L779.4583333333334 491.375L750 562.5H541.6666666666666V770.8333333333334H458.3333333333333z" />
    <glyph glyph-name="arrow-down-sm-line"
      unicode="&#xEA1E;"
      horiz-adv-x="1000" d="M458.3333333333333 371.4166666666668L279.4583333333333 550.2916666666667L220.5416666666666 491.3750000000001L500 211.9166666666666L779.4583333333334 491.375L720.5416666666666 550.2916666666666L541.6666666666666 371.4166666666668V770.8333333333334H458.3333333333333z" />
    <glyph glyph-name="arrow-go-back-fill"
      unicode="&#xEA1F;"
      horiz-adv-x="1000" d="M339.4375020297471 779.4583333333334L172.7708353630804 612.7916666666667V553.875L339.4375020297471 387.2083333333334L410.5625020297471 416.6666666666668V541.6666666666667H618.8958353630804A125 125 0 1 0 618.8958353630804 291.6666666666668H410.5625020297471V208.3333333333334H618.8958353630804A208.3333333333334 208.3333333333334 0 0 1 618.8958353630804 625H410.5625020297471V750z" />
    <glyph glyph-name="arrow-go-back-line"
      unicode="&#xEA20;"
      horiz-adv-x="1000" d="M413.0833353630803 720.5416666666667L354.1666686964137 779.4583333333334L158.0416686964137 583.3333333333334L354.1666686964137 387.2083333333334L413.0833353630803 446.125L317.5416686964137 541.6666666666667H633.6250020297471A125 125 0 1 0 633.6250020297471 291.6666666666668H425.2916686964137V208.3333333333334H633.6250020297471A208.3333333333334 208.3333333333334 0 0 1 633.6250020297471 625H317.5416686964137z" />
    <glyph glyph-name="arrow-go-forward-fill"
      unicode="&#xEA21;"
      horiz-adv-x="1000" d="M660.562497970253 779.4583333333334L827.2291646369197 612.7916666666667V553.875L660.562497970253 387.2083333333334L589.4374979702529 416.6666666666668V541.6666666666667H381.1041646369197A125 125 0 1 1 381.1041646369197 291.6666666666668H589.4374979702529V208.3333333333334H381.1041646369197A208.3333333333334 208.3333333333334 0 0 0 381.1041646369197 625H589.4374979702529V750z" />
    <glyph glyph-name="arrow-go-forward-line"
      unicode="&#xEA22;"
      horiz-adv-x="1000" d="M586.9166646369196 720.5416666666667L645.8333313035862 779.4583333333334L841.9583313035863 583.3333333333334L645.8333313035863 387.2083333333334L586.9166646369196 446.125L682.4583313035862 541.6666666666667H366.374997970253A125 125 0 1 1 366.374997970253 291.6666666666668H574.7083313035862V208.3333333333334H366.374997970253A208.3333333333334 208.3333333333334 0 0 0 366.374997970253 625H682.4583313035862z" />
    <glyph glyph-name="arrow-left-circle-fill"
      unicode="&#xEA23;"
      horiz-adv-x="1000" d="M916.6666666666666 500C916.6666666666666 730.125 730.125 916.6666666666666 500.0000000000001 916.6666666666666S83.3333333333334 730.125 83.3333333333334 500S269.8750000000001 83.3333333333334 500.0000000000001 83.3333333333334S916.6666666666666 269.875 916.6666666666666 500M500.0000000000001 666.6666666666667V541.6666666666667H666.6666666666666V458.3333333333334H500.0000000000001V333.3333333333334L333.3333333333334 500z" />
    <glyph glyph-name="arrow-left-circle-line"
      unicode="&#xEA24;"
      horiz-adv-x="1000" d="M500.0000000000001 666.6666666666667V541.6666666666667H666.6666666666666V458.3333333333334H500.0000000000001V333.3333333333334L333.3333333333334 500zM500.0000000000001 916.6666666666666C269.8750000000001 916.6666666666666 83.3333333333334 730.125 83.3333333333334 500S269.8750000000001 83.3333333333334 500.0000000000001 83.3333333333334S916.6666666666666 269.875 916.6666666666666 500S730.125 916.6666666666666 500.0000000000001 916.6666666666666M166.6666666666667 500A333.3333333333333 333.3333333333333 0 1 0 833.3333333333333 500A333.3333333333333 333.3333333333333 0 0 0 166.6666666666667 500" />
    <glyph glyph-name="arrow-left-double-fill"
      unicode="&#xEA25;"
      horiz-adv-x="1000" d="M381.1041666666667 737.7916666666667L452.2291666666667 708.3333333333334V291.6666666666668L381.1041666666667 262.2083333333334L172.7708333333334 470.5416666666666V529.4583333333333zM756.1041666666666 737.7916666666667L827.2291666666666 708.3333333333334V291.6666666666668L756.1041666666666 262.2083333333334L547.7708333333333 470.5416666666666V529.4583333333333z" />
    <glyph glyph-name="arrow-left-double-line"
      unicode="&#xEA26;"
      horiz-adv-x="1000" d="M533.7708333333334 699.7083333333334L334.0625 500L533.7708333333334 300.2916666666668L474.8541666666667 241.375L216.2291666666667 500L474.8541666666667 758.625zM783.7708333333333 699.7083333333334L584.0624999999999 500L783.7708333333333 300.2916666666668L724.8541666666665 241.375L466.2291666666666 500L724.8541666666666 758.625z" />
    <glyph glyph-name="arrow-left-down-fill"
      unicode="&#xEA27;"
      horiz-adv-x="1000" d="M464.5833333333333 517.2916666666667L726.5 779.1666666666667L785.4166666666667 720.25L523.5833333333333 458.3333333333334L702.4166666666665 279.4583333333334L672.9166666666667 208.3333333333334H256.25L214.5833333333334 250V666.6666666666667L285.7083333333334 696.125z" />
    <glyph glyph-name="arrow-left-down-line"
      unicode="&#xEA28;"
      horiz-adv-x="1000" d="M297.9166666666667 350.625L726.5 779.1666666666667L785.4166666666667 720.25L356.8333333333333 291.6666666666668H714.5833333333333V208.3333333333334H214.5833333333333V708.3333333333334H297.9166666666666z" />
    <glyph glyph-name="arrow-left-down-sm-fill"
      unicode="&#xEA29;"
      horiz-adv-x="1000" d="M546.2291666666667 476.2916666666666L659.7291666666667 362.7916666666667L630.2708333333334 291.6666666666668H338.6041666666667L296.9375 333.3333333333334V625L368.0625000000001 654.4583333333334L481.5625000000001 540.9583333333334L638.4791666666666 697.7916666666667L703.0625 633.1666666666667z" />
    <glyph glyph-name="arrow-left-down-sm-line"
      unicode="&#xEA2A;"
      horiz-adv-x="1000" d="M380.2708333333334 439.625L638.3958333333334 697.7916666666667L703.0625 633.1666666666667L444.8958333333334 375H630.2708333333334V291.6666666666668H296.9375V625H380.2708333333334z" />
    <glyph glyph-name="arrow-left-fill"
      unicode="&#xEA2B;"
      horiz-adv-x="1000" d="M485.2708333333333 862.7916666666666L556.3958333333334 833.3333333333334V541.6666666666667H848.0625V458.3333333333334H556.3958333333334V166.6666666666668L485.2708333333333 137.2083333333334L151.9375 470.5416666666666V529.4583333333333z" />
    <glyph glyph-name="arrow-left-line"
      unicode="&#xEA2C;"
      horiz-adv-x="1000" d="M296.7083333333334 541.6666666666667L558.9166666666667 803.875L500.0000000000001 862.7916666666666L137.2083333333334 500L500.0000000000001 137.2083333333334L558.9166666666667 196.1250000000001L296.7083333333334 458.3333333333334H862.7916666666667V541.6666666666667z" />
    <glyph glyph-name="arrow-left-right-fill"
      unicode="&#xEA2D;"
      horiz-adv-x="1000" d="M841.9583333333334 678.875L654.4583333333334 491.375L583.3333333333333 520.8333333333334V666.6666666666667H166.6666666666667V750H583.3333333333333V895.8333333333334L654.4583333333334 925.2916666666666L841.9583333333334 737.7916666666667zM416.6666666666667 250V104.1666666666667L345.5416666666667 74.7083333333334L158.0416666666666 262.2083333333334V321.1250000000001L345.5416666666667 508.6250000000001L416.6666666666667 479.1666666666667V333.3333333333334H833.3333333333333V250z" />
    <glyph glyph-name="arrow-left-right-line"
      unicode="&#xEA2E;"
      horiz-adv-x="1000" d="M654.4583333333335 925.2916666666666L871.4166666666667 708.3333333333334L654.4583333333335 491.375L595.5416666666667 550.2916666666666L711.9166666666665 666.6666666666667H166.6666666666667V750H711.9166666666665L595.5416666666667 866.375zM833.3333333333333 333.3333333333334H288.0833333333334L404.4583333333334 449.7083333333334L345.5416666666668 508.625L128.5833333333334 291.6666666666668L345.5416666666667 74.7083333333334L404.4583333333333 133.6250000000001L288.0833333333334 250H833.3333333333333z" />
    <glyph glyph-name="arrow-left-sm-fill"
      unicode="&#xEA2F;"
      horiz-adv-x="1000" d="M556.3958333333335 750L485.2708333333334 779.4583333333334L235.2708333333334 529.4583333333334V470.5416666666667L485.2708333333334 220.5416666666666L556.3958333333335 250V458.3333333333334H764.7291666666667V541.6666666666667H556.3958333333335z" />
    <glyph glyph-name="arrow-left-sm-line"
      unicode="&#xEA30;"
      horiz-adv-x="1000" d="M380.0416666666667 541.6666666666667L558.9166666666666 720.5416666666667L500 779.4583333333334L220.5416666666667 500L500 220.5416666666666L558.9166666666666 279.4583333333334L380.0416666666667 458.3333333333334H779.4583333333333V541.6666666666667z" />
    <glyph glyph-name="arrow-left-up-fill"
      unicode="&#xEA31;"
      horiz-adv-x="1000" d="M214.6041666666667 749.8333333333334L256.2708333333334 791.5H672.9375L702.3958333333333 720.375L523.5625 541.5L785.3958333333334 279.625L726.4791666666666 220.7083333333333L464.6041666666666 482.5833333333333L285.7291666666667 303.7083333333333L214.6041666666666 333.1666666666667z" />
    <glyph glyph-name="arrow-left-up-line"
      unicode="&#xEA32;"
      horiz-adv-x="1000" d="M297.9375 649.25V291.5000000000001H214.6041666666667V791.5000000000001H714.6041666666666V708.1666666666667H356.8541666666667L785.3958333333334 279.5833333333334L726.4791666666666 220.6666666666666z" />
    <glyph glyph-name="arrow-left-up-sm-fill"
      unicode="&#xEA33;"
      horiz-adv-x="1000" d="M546.2291666666667 523.5833333333334L659.7291666666667 637.0833333333333L630.2708333333334 708.2083333333333H338.6041666666667L296.9375 666.5416666666667V374.875L368.0625000000001 345.4166666666667L481.5625000000001 458.9583333333333L638.4791666666666 302.0833333333334L703.0625 366.75z" />
    <glyph glyph-name="arrow-left-up-sm-line"
      unicode="&#xEA34;"
      horiz-adv-x="1000" d="M380.2708333333334 560.25V374.875H296.9375V708.2083333333334H630.2708333333334V624.875H444.8958333333334L703.0625 366.75L638.3958333333334 302.0833333333334z" />
    <glyph glyph-name="arrow-right-circle-fill"
      unicode="&#xEA35;"
      horiz-adv-x="1000" d="M83.3333333333334 500C83.3333333333334 730.125 269.8750000000001 916.6666666666666 500.0000000000001 916.6666666666666S916.6666666666666 730.125 916.6666666666666 500S730.125 83.3333333333334 500.0000000000001 83.3333333333334S83.3333333333334 269.875 83.3333333333334 500M500.0000000000001 666.6666666666667V541.6666666666667H333.3333333333334V458.3333333333334H500.0000000000001V333.3333333333334L666.6666666666666 500z" />
    <glyph glyph-name="arrow-right-circle-line"
      unicode="&#xEA36;"
      horiz-adv-x="1000" d="M500.0000000000001 666.6666666666667V541.6666666666667H333.3333333333334V458.3333333333334H500.0000000000001V333.3333333333334L666.6666666666666 500zM500.0000000000001 916.6666666666666C269.8750000000001 916.6666666666666 83.3333333333334 730.125 83.3333333333334 500S269.8750000000001 83.3333333333334 500.0000000000001 83.3333333333334S916.6666666666666 269.875 916.6666666666666 500S730.125 916.6666666666666 500.0000000000001 916.6666666666666M166.6666666666667 500A333.3333333333333 333.3333333333333 0 1 0 833.3333333333333 500A333.3333333333333 333.3333333333333 0 0 0 166.6666666666667 500" />
    <glyph glyph-name="arrow-right-double-fill"
      unicode="&#xEA37;"
      horiz-adv-x="1000" d="M243.8958333333333 737.7916666666667L172.7708333333333 708.3333333333334V291.6666666666668L243.8958333333333 262.2083333333334L452.2291666666666 470.5416666666666V529.4583333333333zM618.8958333333333 737.7916666666667L547.7708333333333 708.3333333333334V291.6666666666668L618.8958333333333 262.2083333333334L827.2291666666666 470.5416666666666V529.4583333333333z" />
    <glyph glyph-name="arrow-right-double-line"
      unicode="&#xEA38;"
      horiz-adv-x="1000" d="M216.2291666666666 699.7083333333334L415.9375 500L216.2291666666666 300.2916666666668L275.1458333333333 241.375L533.7708333333333 500L275.1458333333333 758.625zM466.2291666666666 699.7083333333334L665.9374999999998 500L466.2291666666666 300.2916666666668L525.1458333333333 241.375L783.7708333333333 500L525.1458333333333 758.625z" />
    <glyph glyph-name="arrow-right-down-fill"
      unicode="&#xEA39;"
      horiz-adv-x="1000" d="M535.3958333333333 517.25L273.5208333333333 779.1666666666667L214.6041666666667 720.2083333333334L476.4791666666667 458.3333333333334L297.6041666666667 279.4583333333334L327.0625 208.3333333333334H743.7291666666667L785.3958333333333 250V666.6666666666667L714.2708333333333 696.125z" />
    <glyph glyph-name="arrow-right-down-line"
      unicode="&#xEA3A;"
      horiz-adv-x="1000" d="M702.0625 350.5833333333334L273.5208333333333 779.1666666666667L214.6041666666667 720.2083333333334L643.1458333333333 291.6666666666668H285.3958333333333V208.3333333333334H785.3958333333333V708.3333333333334H702.0625z" />
    <glyph glyph-name="arrow-right-down-sm-fill"
      unicode="&#xEA3B;"
      horiz-adv-x="1000" d="M453.7708333333334 476.2916666666666L340.2708333333334 362.7916666666667L369.7291666666668 291.6666666666668H661.3958333333334L703.0625 333.3333333333334V625L631.9375 654.4583333333334L518.4375 540.9583333333334L361.5625 697.7916666666667L296.9375 633.1666666666667z" />
    <glyph glyph-name="arrow-right-down-sm-line"
      unicode="&#xEA3C;"
      horiz-adv-x="1000" d="M619.7291666666667 439.625L361.5625 697.7916666666667L296.9375 633.1666666666667L555.1041666666667 375H369.7291666666667V291.6666666666668H703.0625V625H619.7291666666667z" />
    <glyph glyph-name="arrow-right-fill"
      unicode="&#xEA3D;"
      horiz-adv-x="1000" d="M514.7291666666667 862.7916666666666L443.6041666666667 833.3333333333334V541.6666666666667H151.9375V458.3333333333334H443.6041666666667V166.6666666666668L514.7291666666667 137.2083333333334L848.0625 470.5416666666666V529.4583333333333z" />
    <glyph glyph-name="arrow-right-line"
      unicode="&#xEA3E;"
      horiz-adv-x="1000" d="M703.2916666666665 541.6666666666667L441.0833333333333 803.875L500 862.7916666666666L862.7916666666667 500L500.0000000000001 137.2083333333334L441.0833333333335 196.1250000000001L703.2916666666665 458.3333333333334H137.2083333333334V541.6666666666667z" />
    <glyph glyph-name="arrow-right-sm-fill"
      unicode="&#xEA3F;"
      horiz-adv-x="1000" d="M443.6041666666667 750L514.7291666666666 779.4583333333334L764.7291666666666 529.4583333333334V470.5416666666667L514.7291666666666 220.5416666666666L443.6041666666667 250V458.3333333333334H235.2708333333333V541.6666666666667H443.6041666666667z" />
    <glyph glyph-name="arrow-right-sm-line"
      unicode="&#xEA40;"
      horiz-adv-x="1000" d="M619.9583333333333 541.6666666666667L441.0833333333333 720.5416666666667L499.9999999999999 779.4583333333334L779.4583333333334 500L500 220.5416666666666L441.0833333333334 279.4583333333334L619.9583333333333 458.3333333333334H220.5416666666666V541.6666666666667z" />
    <glyph glyph-name="arrow-right-up-fill"
      unicode="&#xEA41;"
      horiz-adv-x="1000" d="M785.4166666666667 749.8333333333334L743.75 791.5H327.0833333333334L297.5833333333334 720.375L476.4583333333334 541.5L214.5833333333334 279.5833333333334L273.5 220.6666666666666L535.4166666666667 482.5L714.2916666666667 303.6666666666668L785.4166666666667 333.1250000000001z" />
    <glyph glyph-name="arrow-right-up-line"
      unicode="&#xEA42;"
      horiz-adv-x="1000" d="M643.125 708.1666666666667L214.5833333333334 279.5833333333334L273.5 220.6666666666666L702.0833333333333 649.25V291.5000000000001H785.4166666666667V791.5000000000001H285.4166666666667V708.1666666666667z" />
    <glyph glyph-name="arrow-right-up-sm-fill"
      unicode="&#xEA43;"
      horiz-adv-x="1000" d="M453.7708333333334 523.5833333333334L340.2708333333334 637.0833333333333L369.7291666666668 708.2083333333334H661.3958333333334L703.0625 666.5416666666667V374.875L631.9375 345.4166666666667L518.4375 458.9583333333333L361.5625 302.0833333333334L296.9375 366.75z" />
    <glyph glyph-name="arrow-right-up-sm-line"
      unicode="&#xEA44;"
      horiz-adv-x="1000" d="M555.1041666666667 624.875L296.9375 366.75L361.5625 302.0833333333334L619.7291666666667 560.25V374.875H703.0625V708.2083333333334H369.7291666666667V624.875z" />
    <glyph glyph-name="arrow-turn-back-fill"
      unicode="&#xEA45;"
      horiz-adv-x="1000" d="M368.8958333333334 416.6666666666668H243.8958333333334L214.4375 345.5416666666667L381.1041666666667 178.875H440.0208333333333L606.6875 345.5416666666667L577.2291666666666 416.6666666666668H452.2291666666666V625A125 125 0 1 0 702.2291666666666 625V416.6666666666668H785.5625V625A208.3333333333334 208.3333333333334 0 0 1 368.8958333333334 625z" />
    <glyph glyph-name="arrow-turn-back-line"
      unicode="&#xEA46;"
      horiz-adv-x="1000" d="M452.2291666666666 308.9166666666668V625A125 125 0 1 0 702.2291666666666 625V416.6666666666668H785.5625V625A208.3333333333334 208.3333333333334 0 0 1 368.8958333333334 625V308.9166666666668L273.3541666666667 404.4583333333334L214.4375 345.5416666666668L410.5625 149.4166666666666L606.6875 345.5416666666667L547.7708333333334 404.4583333333334z" />
    <glyph glyph-name="arrow-turn-forward-fill"
      unicode="&#xEA47;"
      horiz-adv-x="1000" d="M785.5625 654.4583333333334L618.8958333333333 821.125H559.9791666666667L393.3125000000001 654.4583333333334L422.7708333333333 583.3333333333334H547.7708333333333V375A125 125 0 1 0 297.7708333333333 375V583.3333333333334H214.4375V375A208.3333333333334 208.3333333333334 0 0 1 631.1041666666667 375V583.3333333333334H756.1041666666667z" />
    <glyph glyph-name="arrow-turn-forward-line"
      unicode="&#xEA48;"
      horiz-adv-x="1000" d="M726.6458333333333 595.5416666666667L785.5625 654.4583333333333L589.4375 850.5833333333334L393.3125 654.4583333333334L452.2291666666666 595.5416666666667L547.7708333333333 691.0833333333334V375A125 125 0 1 0 297.7708333333333 375V583.3333333333334H214.4375V375A208.3333333333334 208.3333333333334 0 0 1 631.1041666666667 375V691.0833333333334z" />
    <glyph glyph-name="arrow-up-circle-fill"
      unicode="&#xEA49;"
      horiz-adv-x="1000" d="M500.0000000000001 83.3333333333334C730.125 83.3333333333334 916.6666666666666 269.875 916.6666666666666 500S730.125 916.6666666666666 500.0000000000001 916.6666666666666S83.3333333333334 730.125 83.3333333333334 500S269.8750000000001 83.3333333333334 500.0000000000001 83.3333333333334M666.6666666666666 500H541.6666666666666V333.3333333333334H458.3333333333334V500H333.3333333333334L500.0000000000001 666.6666666666667z" />
    <glyph glyph-name="arrow-up-circle-line"
      unicode="&#xEA4A;"
      horiz-adv-x="1000" d="M666.6666666666666 500H541.6666666666666V333.3333333333334H458.3333333333334V500H333.3333333333334L500.0000000000001 666.6666666666667zM500.0000000000001 916.6666666666666C269.8750000000001 916.6666666666666 83.3333333333334 730.125 83.3333333333334 500S269.8750000000001 83.3333333333334 500.0000000000001 83.3333333333334S916.6666666666666 269.875 916.6666666666666 500S730.125 916.6666666666666 500.0000000000001 916.6666666666666M166.6666666666667 500A333.3333333333333 333.3333333333333 0 1 0 833.3333333333333 500A333.3333333333333 333.3333333333333 0 0 0 166.6666666666667 500" />
    <glyph glyph-name="arrow-up-double-fill"
      unicode="&#xEA4B;"
      horiz-adv-x="1000" d="M262.2083333333334 612.7916666666667L291.6666666666667 541.6666666666667H708.3333333333333L737.7916666666667 612.7916666666667L529.4583333333335 821.125H470.5416666666667zM262.2083333333334 237.7916666666668L291.6666666666667 166.6666666666668H708.3333333333333L737.7916666666667 237.7916666666668L529.4583333333335 446.1250000000001H470.5416666666667z" />
    <glyph glyph-name="arrow-up-double-line"
      unicode="&#xEA4C;"
      horiz-adv-x="1000" d="M300.2916666666667 230.9583333333334L500 430.6666666666668L699.7083333333333 230.9583333333334L758.625 289.8750000000001L500 548.5L241.375 289.8750000000001zM300.2916666666667 480.9583333333334L500 680.6666666666667L699.7083333333333 480.9583333333334L758.625 539.875L500 798.5L241.375 539.875z" />
    <glyph glyph-name="arrow-up-down-fill"
      unicode="&#xEA4D;"
      horiz-adv-x="1000" d="M262.2083333333334 841.9583333333334L74.7083333333334 654.4583333333334L104.1666666666667 583.3333333333334H250.0000000000001V166.6666666666668H333.3333333333334V583.3333333333334H479.1666666666667L508.6250000000001 654.4583333333334L321.1250000000001 841.9583333333334zM666.6666666666666 416.6666666666668H520.8333333333333L491.375 345.5416666666667L678.8749999999999 158.0416666666666H737.7916666666666L925.2916666666666 345.5416666666667L895.8333333333333 416.6666666666668H750V833.3333333333334H666.6666666666666z" />
    <glyph glyph-name="arrow-up-down-line"
      unicode="&#xEA4E;"
      horiz-adv-x="1000" d="M291.6666666666667 871.4166666666667L508.6250000000001 654.4583333333334L449.7083333333335 595.5416666666667L333.3333333333334 711.9166666666667V166.6666666666668H250.0000000000001V711.9166666666667L133.6250000000001 595.5416666666667L74.7083333333334 654.4583333333334zM666.6666666666666 288.0833333333335L550.2916666666666 404.4583333333334L491.3750000000001 345.5416666666668L708.3333333333333 128.5833333333334L925.2916666666666 345.5416666666667L866.3749999999999 404.4583333333334L750 288.0833333333335V833.3333333333334H666.6666666666666z" />
    <glyph glyph-name="arrow-up-fill"
      unicode="&#xEA4F;"
      horiz-adv-x="1000" d="M137.2083333333334 508.6250000000001L166.6666666666667 437.5H458.3333333333334V145.8333333333334H541.6666666666666V437.5H833.3333333333333L862.7916666666666 508.6250000000001L529.4583333333334 841.9583333333334H470.5416666666667z" />
    <glyph glyph-name="arrow-up-line"
      unicode="&#xEA50;"
      horiz-adv-x="1000" d="M458.3333333333334 711.9166666666667L196.125 449.7083333333334L137.2083333333334 508.625L500 871.4166666666667L862.7916666666666 508.625L803.8749999999999 449.7083333333334L541.6666666666666 711.9166666666667V145.8333333333334H458.3333333333334z" />
    <glyph glyph-name="arrow-up-sm-fill"
      unicode="&#xEA51;"
      horiz-adv-x="1000" d="M250 437.5L220.5416666666666 508.6250000000001L470.5416666666666 758.625H529.4583333333333L779.4583333333334 508.6250000000001L750 437.5H541.6666666666666V229.1666666666668H458.3333333333333V437.5z" />
    <glyph glyph-name="arrow-up-sm-line"
      unicode="&#xEA52;"
      horiz-adv-x="1000" d="M458.3333333333333 628.5833333333334L279.4583333333333 449.7083333333334L220.5416666666666 508.625L500 788.0833333333334L779.4583333333334 508.6250000000001L720.5416666666666 449.7083333333334L541.6666666666666 628.5833333333334V229.1666666666668H458.3333333333333z" />
    <glyph glyph-name="at-fill"
      unicode="&#xEA53;"
      horiz-adv-x="1000" d="M500.0000000000001 583.3333333333334A83.3333333333333 83.3333333333333 0 1 0 500.0000000000001 416.6666666666668A83.3333333333333 83.3333333333333 0 0 0 500.0000000000001 583.3333333333334M500.0000000000001 83.3333333333334C730.125 83.3333333333334 916.6666666666666 269.875 916.6666666666666 500S730.125 916.6666666666666 500.0000000000001 916.6666666666666S83.3333333333334 730.125 83.3333333333334 500S269.8750000000001 83.3333333333334 500.0000000000001 83.3333333333334M500.0000000000001 750A250 250 0 1 1 628.8333333333334 285.6666666666668L671.8333333333334 214.2916666666668A333.3333333333333 333.3333333333333 0 1 0 833.3333333333333 500V458.3333333333334A125 125 0 0 0 613 377.5A166.6666666666667 166.6666666666667 0 1 0 610.25 625H666.6666666666666V458.3333333333334A41.6666666666667 41.6666666666667 0 1 1 750 458.3333333333334V500A250 250 0 0 1 500.0000000000001 750" />
    <glyph glyph-name="at-line"
      unicode="&#xEA54;"
      horiz-adv-x="1000" d="M166.6666550383972 500A333.3333333333333 333.3333333333333 0 1 0 833.3333217050638 500V437.5A62.5 62.5 0 0 0 708.3333217050638 437.5V666.6666666666667H624.9999883717305A208.3333333333334 208.3333333333334 0 1 1 650.1249883717305 355.5833333333334A145.8333333333334 145.8333333333334 0 0 1 916.6666550383972 437.5V500C916.7083217050638 730.125 730.1666550383972 916.6666666666666 500.0416550383972 916.6666666666666S83.3333217050639 730.125 83.3333217050639 500S269.8749883717306 83.3333333333334 499.9999883717306 83.3333333333334A415 415 0 0 1 754.6666550383973 170.1666666666668L703.6666550383973 236.125A333.3333333333333 333.3333333333333 0 0 0 166.6666550383972 500M624.9999883717305 500A125 125 0 1 0 374.9999883717306 500A125 125 0 0 0 624.9999883717305 500" />
    <glyph glyph-name="attachment-2-fill"
      unicode="&#xEA55;"
      horiz-adv-x="1000" d="M403.0592758442976 880A239.5833333333333 239.5833333333333 0 0 0 741.8926091776309 541.1250000000001L506.1842758442975 305.4583333333335A156.25 156.25 0 1 0 285.2259425109642 526.4166666666669L528.2676091776309 769.4583333333335L616.6842758442976 681.1250000000002L373.6009425109643 438.0000000000003A31.25 31.25 0 1 1 417.767609177631 393.8333333333335L653.4759425109644 629.5416666666669A114.5833333333333 114.5833333333333 0 1 1 491.4342758442978 791.5833333333335L226.2676091776311 526.4166666666669A197.9166666666667 197.9166666666667 0 1 1 506.1842758442976 246.5000000000003L867.1009425109645 607.416666666667L955.4759425109644 519.0833333333336L594.5592758442978 158.1250000000002A322.9166666666666 322.9166666666666 0 0 0 137.8926091776311 614.791666666667z" />
    <glyph glyph-name="attachment-2-line"
      unicode="&#xEA56;"
      horiz-adv-x="1000" d="M423.0466682549778 865.25L157.8800015883112 600.0833333333333A302.0833333333333 302.0833333333333 0 1 1 585.0883349216444 172.8750000000001L931.2550015883112 519.0416666666667L872.3383349216444 577.9583333333334L526.1716682549777 231.7916666666669A218.75 218.75 0 1 0 216.7966682549778 541.1250000000001L481.9633349216445 806.2916666666667A135.4166666666667 135.4166666666667 0 0 0 673.4633349216444 614.7916666666667L437.7550015883112 379.0833333333335A52.0833333333333 52.0833333333333 0 0 0 364.0883349216445 452.7500000000001L592.4216682549777 681.0833333333335L533.5050015883112 740.0000000000002L305.1716682549778 511.6666666666668A135.4166666666667 135.4166666666667 0 0 1 496.6716682549778 320.1666666666669L732.380001588311 555.8750000000002A218.75 218.75 0 1 1 423.0466682549777 865.2500000000002" />
    <glyph glyph-name="attachment-box-fill"
      unicode="&#xEA57;"
      horiz-adv-x="1000" d="M83.3333333333334 875L125.0000000000001 916.6666666666666H875L916.6666666666666 875V125L875 83.3333333333334H125.0000000000001L83.3333333333334 125zM416.6666666666667 750A125 125 0 0 1 291.6666666666667 625V458.3333333333334A208.3333333333334 208.3333333333334 0 0 1 708.3333333333333 458.3333333333334V676.25H625V458.3333333333334A125 125 0 1 0 375.0000000000001 458.3333333333334V625A41.6666666666667 41.6666666666667 0 0 0 458.3333333333334 625V398.5H541.6666666666666V625A125 125 0 0 1 416.6666666666667 750" />
    <glyph glyph-name="attachment-box-line"
      unicode="&#xEA58;"
      horiz-adv-x="1000" d="M416.6666666666667 750A125 125 0 0 1 291.6666666666667 625V458.3333333333334A208.3333333333334 208.3333333333334 0 0 1 708.3333333333333 458.3333333333334V676.25H625V458.3333333333334A125 125 0 1 0 375.0000000000001 458.3333333333334V625A41.6666666666667 41.6666666666667 0 0 0 458.3333333333334 625V398.5H541.6666666666666V625A125 125 0 0 1 416.6666666666667 750M125.0000000000001 916.6666666666666L83.3333333333334 875V125L125.0000000000001 83.3333333333334H875L916.6666666666666 125V875L875 916.6666666666666zM166.6666666666667 166.6666666666668V833.3333333333334H833.3333333333333V166.6666666666668z" />
    <glyph glyph-name="attachment-fill"
      unicode="&#xEA59;"
      horiz-adv-x="1000" d="M177.0833333333334 718.75A239.5833333333333 239.5833333333333 0 1 0 656.25 718.75V385.4166666666668A156.25 156.25 0 1 0 343.7500000000001 385.4166666666668V708.3333333333334H468.7500000000001V385.4166666666668A31.25 31.25 0 0 1 531.25 385.4166666666668V718.75A114.5833333333333 114.5833333333333 0 1 1 302.0833333333334 718.75V343.75A197.9166666666667 197.9166666666667 0 1 1 697.9166666666667 343.75V833.3333333333334H822.9166666666667V343.75A322.9166666666666 322.9166666666666 0 0 0 177.0833333333334 343.75z" />
    <glyph glyph-name="attachment-line"
      unicode="&#xEA5A;"
      horiz-adv-x="1000" d="M197.9166666666667 718.75A218.75 218.75 0 0 0 635.4166666666666 718.75V385.4166666666668A135.4166666666667 135.4166666666667 0 0 0 364.5833333333334 385.4166666666668V708.3333333333334H447.9166666666667V385.4166666666668A52.0833333333333 52.0833333333333 0 1 1 552.0833333333333 385.4166666666668V718.75A135.4166666666667 135.4166666666667 0 0 1 281.25 718.75V343.75A218.75 218.75 0 1 1 718.75 343.75V833.3333333333334H802.0833333333333V343.75A302.0833333333333 302.0833333333333 0 1 0 197.9166666666667 343.75z" />
    <glyph glyph-name="body-scan-fill"
      unicode="&#xEA5B;"
      horiz-adv-x="1000" d="M83.3333333333334 916.6666666666666H333.3333333333334V833.3333333333334H166.6666666666667V666.6666666666667H83.3333333333334zM500.0000000000001 583.3333333333334A104.1666666666667 104.1666666666667 0 1 1 500.0000000000001 791.6666666666667A104.1666666666667 104.1666666666667 0 0 1 500.0000000000001 583.3333333333334M312.5000000000001 708.3333333333334A187.5 187.5 0 0 1 687.5 708.3333333333334H770.8333333333333A270.8333333333333 270.8333333333333 0 0 0 625 468V208.3333333333334H375.0000000000001V468A270.8333333333333 270.8333333333333 0 0 0 229.1666666666667 708.3333333333334zM333.3333333333334 83.3333333333334H83.3333333333334V333.3333333333334H166.6666666666667V166.6666666666668H333.3333333333334zM916.6666666666666 916.6666666666666H666.6666666666666V833.3333333333334H833.3333333333333V666.6666666666667H916.6666666666666zM666.6666666666666 83.3333333333334H916.6666666666666V333.3333333333334H833.3333333333333V166.6666666666668H666.6666666666666z" />
    <glyph glyph-name="body-scan-line"
      unicode="&#xEA5C;"
      horiz-adv-x="1000" d="M323.7916666666667 644.0416666666667A187.9166666666667 187.9166666666667 0 0 1 458.3333333333334 525.4583333333334V291.6666666666668H541.6666666666666V523.25H541.7083333333333V525.5A187.9166666666667 187.9166666666667 0 0 1 686.7916666666666 691.75Q687.5 700 687.5 708.3333333333334H770.8333333333333A270.8333333333333 270.8333333333333 0 0 0 750.0833333333333 604.1666666666667A272.0833333333333 272.0833333333333 0 0 0 625.0833333333333 468.0416666666667L625 208.3333333333334H375.0000000000001V468A271.6666666666667 271.6666666666667 0 0 0 245.2500000000001 616.25A270.8333333333333 270.8333333333333 0 0 0 229.1666666666667 708.3333333333334H312.5000000000001C312.5000000000001 685.75 316.5000000000001 664.125 323.7916666666667 644.0416666666667M500.0000000000001 791.6666666666667A104.1666666666667 104.1666666666667 0 1 0 500.0000000000001 583.3333333333334A104.1666666666667 104.1666666666667 0 0 0 500.0000000000001 791.6666666666667M166.6666666666667 833.3333333333334V666.6666666666667H83.3333333333334V916.6666666666666H333.3333333333334V833.3333333333334zM83.3333333333334 83.3333333333334H333.3333333333334V166.6666666666668H166.6666666666667V333.3333333333334H83.3333333333334zM916.6666666666666 916.6666666666666V666.6666666666667H833.3333333333333V833.3333333333334H666.6666666666666V916.6666666666666zM916.6666666666666 83.3333333333334H666.6666666666666V166.6666666666668H833.3333333333333V333.3333333333334H916.6666666666666z" />
    <glyph glyph-name="bookmark-2-fill"
      unicode="&#xEA5D;"
      horiz-adv-x="1000" d="M166.6666666666667 854.1666666666667L208.3333333333334 895.8333333333334H791.6666666666666L833.3333333333333 854.1666666666667V104.1666666666667L769.1666666666666 69.125L500 242.0833333333334L230.8333333333334 69.1666666666666L166.6666666666667 104.1666666666667zM666.6666666666666 625H333.3333333333334V541.6666666666667H666.6666666666666z" />
    <glyph glyph-name="bookmark-2-line"
      unicode="&#xEA5E;"
      horiz-adv-x="1000" d="M666.6666666666666 625H333.3333333333334V541.6666666666667H666.6666666666666zM208.3333333333334 895.8333333333334L166.6666666666667 854.1666666666667V104.1666666666667L230.8333333333334 69.125L500 242.0833333333334L769.1666666666666 69.0833333333333L833.3333333333333 104.1666666666667V854.1666666666667L791.6666666666666 895.8333333333334zM250.0000000000001 180.5000000000001V812.5H750V180.5000000000001L522.4999999999999 326.75H477.5z" />
    <glyph glyph-name="bookmark-3-fill"
      unicode="&#xEA5F;"
      horiz-adv-x="1000" d="M166.6666666666667 854.1666666666667L208.3333333333334 895.8333333333334H791.6666666666666L833.3333333333333 854.1666666666667V104.1666666666667L769.1666666666666 69.125L500 242.0833333333334L230.8333333333334 69.1666666666666L166.6666666666667 104.1666666666667zM558.75 622.5833333333334L500 750L441.25 622.5833333333334L301.875 606.0416666666667L404.875 510.75L377.5416666666667 373.125L500 441.6666666666667L622.4583333333333 373.125L595.125 510.75L698.1249999999999 606.0416666666666z" />
    <glyph glyph-name="bookmark-3-line"
      unicode="&#xEA60;"
      horiz-adv-x="1000" d="M558.75 622.5833333333334L500 750L441.25 622.5833333333334L301.875 606.0416666666667L404.875 510.75L377.5416666666667 373.125L500 441.6666666666667L622.4583333333333 373.125L595.125 510.75L698.1249999999999 606.0416666666666zM208.3333333333334 895.8333333333334L166.6666666666667 854.1666666666667V104.1666666666667L230.8333333333334 69.125L500 242.0833333333334L769.1666666666666 69.0833333333333L833.3333333333333 104.1666666666667V854.1666666666667L791.6666666666666 895.8333333333334zM250.0000000000001 180.5000000000001V812.5H750V180.5000000000001L522.4999999999999 326.75H477.5z" />
    <glyph glyph-name="bookmark-fill"
      unicode="&#xEA61;"
      horiz-adv-x="1000" d="M208.3333333333334 895.8333333333334L166.6666666666667 854.1666666666667V104.1666666666667L230.8333333333334 69.125L500 242.0833333333334L769.1666666666666 69.0833333333333L833.3333333333333 104.1666666666667V854.1666666666667L791.6666666666666 895.8333333333334z" />
    <glyph glyph-name="bookmark-line"
      unicode="&#xEA62;"
      horiz-adv-x="1000" d="M166.6666666666667 854.1666666666667L208.3333333333334 895.8333333333334H791.6666666666666L833.3333333333333 854.1666666666667V104.1666666666667L769.1666666666666 69.125L500 242.0833333333334L230.8333333333334 69.1666666666666L166.6666666666667 104.1666666666667zM250.0000000000001 812.5V180.5000000000001L477.5 326.75H522.5L750 180.5000000000001V812.5z" />
    <glyph glyph-name="brain-fill"
      unicode="&#xEA63;"
      horiz-adv-x="1000" d="M458.3333333333334 843.1666666666667V470.3333333333334C424.1250000000001 496.5833333333334 377.8333333333335 513.8333333333334 317.0833333333335 520.5833333333334L307.9166666666668 437.75C391.1250000000001 428.5000000000001 423.1250000000001 398.25 438.9166666666667 364.9583333333334C457.5416666666667 325.6250000000001 458.3333333333334 273.5416666666668 458.3333333333334 208.3333333333334V168.7500000000001A145.8333333333334 145.8333333333334 0 0 0 208.3333333333334 270.8333333333334V339.3333333333334A177.1666666666666 177.1666666666666 0 0 0 250.0000000000001 658.9166666666667V750A125 125 0 0 0 458.3333333333334 843.1666666666667M541.6666666666666 843.1666666666667V470.3333333333334C575.875 496.5833333333334 622.1666666666667 513.8333333333334 682.9166666666666 520.5833333333334L692.0833333333333 437.75C608.8749999999999 428.5000000000001 576.8749999999999 398.25 561.0833333333333 364.9583333333334C542.5000000000001 325.6250000000001 541.6666666666667 273.5416666666668 541.6666666666667 208.3333333333334V168.7500000000001A145.8333333333334 145.8333333333334 0 0 1 791.6666666666667 270.8333333333334V339.3333333333334A177.1666666666666 177.1666666666666 0 0 1 750.0000000000001 658.9166666666667V750A125 125 0 0 1 541.6666666666667 843.1666666666667" />
    <glyph glyph-name="brain-line"
      unicode="&#xEA64;"
      horiz-adv-x="1000" d="M375.0165071701314 916.6666666666666A166.6666666666667 166.6666666666667 0 0 0 500.0165071701314 860.25A166.6666666666667 166.6666666666667 0 0 0 791.683173836798 750V687.25A218.75 218.75 0 0 0 833.3498405034646 317.7916666666667V270.8333333333334A187.5 187.5 0 0 0 500.0165071701314 152.9583333333334A187.5 187.5 0 0 0 166.683173836798 270.8333333333334V317.7916666666667A218.75 218.75 0 0 0 208.3498405034647 687.2916666666666V750A166.6666666666667 166.6666666666667 0 0 0 375.0165071701314 916.6666666666666M458.3498405034647 470.3333333333334V520.8333333333334Q458.3498405034647 524.75 458.058173836798 528.625L457.8498405034647 531.7916666666667L458.0998405034647 534.9583333333334Q458.3498405034647 538.25 458.3498405034647 541.6666666666667V750A83.3333333333333 83.3333333333333 0 1 1 291.683173836798 750V628.0833333333334L262.2665071701314 619.0416666666667A135.5 135.5 0 0 1 230.4331738367981 374.6666666666667L250.0165071701314 362.4166666666667V270.8333333333334A104.1666666666667 104.1666666666667 0 0 1 457.7665071701314 259.9583333333334C456.5165071701314 301.6666666666668 452.3498405034647 336.6250000000001 438.9331738367981 364.9583333333334C423.1415071701314 398.2916666666668 391.1415071701314 428.5000000000001 307.9331738367981 437.75L317.0998405034647 520.5833333333334C377.8498405034647 513.8333333333333 424.1415071701314 496.5416666666667 458.3498405034647 470.3333333333334M541.683173836798 520.8333333333334V470.3333333333334C575.8915071701314 496.5833333333334 622.183173836798 513.8333333333334 682.933173836798 520.5833333333334L692.0998405034646 437.75C608.8915071701314 428.5000000000001 576.8915071701313 398.25 561.0998405034646 364.9583333333334C547.683173836798 336.6250000000001 543.5165071701313 301.6666666666668 542.2665071701313 259.9583333333334A104.1666666666667 104.1666666666667 0 0 1 750.0165071701314 270.8333333333334V362.4166666666668L769.5998405034646 374.6666666666668A135.5 135.5 0 0 1 737.7665071701313 619.0833333333334L708.3498405034646 628.0416666666667V750A83.3333333333333 83.3333333333333 0 1 1 541.683173836798 750V541.6666666666667Q541.683173836798 538.25 541.933173836798 534.9583333333334L542.183173836798 531.7916666666667L541.9748405034646 528.625A125 125 0 0 1 541.683173836798 520.8333333333334" />
    <glyph glyph-name="capsule-fill"
      unicode="&#xEA65;"
      horiz-adv-x="1000" d="M485.288615478629 838.8333333333334L161.1636154786291 514.75A250 250 0 1 1 514.7469488119624 161.1666666666669L838.8302821452957 485.2500000000001A250 250 0 0 1 485.2886154786291 838.8333333333334M352.7052821452958 588.4166666666667L588.3719488119624 352.6666666666668L455.8302821452958 220.0833333333335A166.6666666666667 166.6666666666667 0 0 0 220.1219488119624 455.7916666666669z" />
    <glyph glyph-name="capsule-line"
      unicode="&#xEA66;"
      horiz-adv-x="1000" d="M161.1740321452957 556.4166666666667A250 250 0 0 1 514.757365478629 202.8333333333334L838.8406988119624 526.9583333333333A250 250 0 0 1 485.257365478629 880.4999999999999zM220.0906988119624 261.75A166.6666666666667 166.6666666666667 0 0 0 220.0906988119624 497.4583333333334L352.6740321452958 630.0416666666667L588.382365478629 394.3333333333334L455.7990321452957 261.75A166.6666666666667 166.6666666666667 0 0 0 220.0906988119624 261.75M647.3406988119623 453.2916666666667L411.6323654786291 689L544.2156988119624 821.5833333333334A166.6666666666667 166.6666666666667 0 1 0 779.8823654786289 585.875z" />
    <glyph glyph-name="check-circle-fill"
      unicode="&#xEA67;"
      horiz-adv-x="1000" d="M83.3333333333334 500C83.3333333333334 730.125 269.8750000000001 916.6666666666666 500.0000000000001 916.6666666666666S916.6666666666666 730.125 916.6666666666666 500S730.125 83.3333333333334 500.0000000000001 83.3333333333334S83.3333333333334 269.875 83.3333333333334 500M458.3333333333334 336.9166666666668L696.125 574.7083333333333L637.2083333333334 633.625L458.3333333333334 454.75L362.7916666666668 550.2916666666667L303.8750000000001 491.3750000000001z" />
    <glyph glyph-name="check-circle-line"
      unicode="&#xEA68;"
      horiz-adv-x="1000" d="M458.3333333333334 336.9166666666668L696.125 574.7083333333333L637.2083333333334 633.625L458.3333333333334 454.75L362.7916666666668 550.2916666666667L303.8750000000001 491.3750000000001zM500.0000000000001 916.6666666666666C269.8750000000001 916.6666666666666 83.3333333333334 730.125 83.3333333333334 500S269.8750000000001 83.3333333333334 500.0000000000001 83.3333333333334S916.6666666666666 269.875 916.6666666666666 500S730.125 916.6666666666666 500.0000000000001 916.6666666666666M166.6666666666667 500A333.3333333333333 333.3333333333333 0 1 0 833.3333333333333 500A333.3333333333333 333.3333333333333 0 0 0 166.6666666666667 500" />
    <glyph glyph-name="check-double-fill"
      unicode="&#xEA69;"
      horiz-adv-x="1000" d="M645.4166666666666 752.5L733.625 664.2916666666667L518.75 449.4166666666667L430.5 537.625zM119.1666666666666 554.5833333333334L236.9166666666667 436.9166666666668L236.75 436.7500000000001L371.5833333333334 301.9583333333334L283.3333333333333 213.7083333333335L30.8333333333333 466.2083333333334zM518.75 213.7083333333335L969.1666666666669 664.1250000000001L880.8333333333334 752.5416666666667L518.75 390.4583333333335L354.5833333333335 554.6250000000001L266.2500000000001 466.2083333333335z" />
    <glyph glyph-name="check-double-line"
      unicode="&#xEA6A;"
      horiz-adv-x="1000" d="M286.4583333333333 243.1666666666667L366.375 323.0833333333333L307.4583333333333 381.9999999999999L286.4583333333333 361L107.5833333333333 539.8749999999999L48.6666666666667 480.9583333333333zM722.1666666666667 678.875L484.25 440.9583333333334L425.2916666666667 499.8333333333334L663.2083333333335 737.7916666666667zM515.625 232.75L951.3333333333334 668.4583333333334L892.4166666666666 727.375L515.625 350.5833333333335L336.7500000000001 529.4583333333334L277.8333333333334 470.5416666666667z" />
    <glyph glyph-name="check-fill"
      unicode="&#xEA6B;"
      horiz-adv-x="1000" d="M851.4583333333333 653.75L401.0416666666668 203.25L148.5416666666668 455.75L236.8750000000001 544.1666666666666L401.0416666666668 380L763.1249999999999 742.0833333333333z" />
    <glyph glyph-name="check-line"
      unicode="&#xEA6C;"
      horiz-adv-x="1000" d="M836.75 668.4583333333334L401.0416666666667 232.75L163.25 470.5416666666666L222.1666666666667 529.4583333333333L401.0416666666667 350.5833333333334L777.8333333333333 727.375z" />
    <glyph glyph-name="checkbox-blank-fill"
      unicode="&#xEA6D;"
      horiz-adv-x="1000" d="M291.6666666666667 875A166.6666666666667 166.6666666666667 0 0 1 125 708.3333333333334V291.6666666666668A166.6666666666667 166.6666666666667 0 0 1 291.6666666666667 125H708.3333333333333A166.6666666666667 166.6666666666667 0 0 1 875 291.6666666666668V708.3333333333334A166.6666666666667 166.6666666666667 0 0 1 708.3333333333333 875z" />
    <glyph glyph-name="checkbox-blank-line"
      unicode="&#xEA6E;"
      horiz-adv-x="1000" d="M125 708.3333333333334A166.6666666666667 166.6666666666667 0 0 0 291.6666666666667 875H708.3333333333333A166.6666666666667 166.6666666666667 0 0 0 875 708.3333333333334V291.6666666666668A166.6666666666667 166.6666666666667 0 0 0 708.3333333333333 125H291.6666666666667A166.6666666666667 166.6666666666667 0 0 0 125 291.6666666666668zM291.6666666666667 791.6666666666667A83.3333333333333 83.3333333333333 0 0 1 208.3333333333334 708.3333333333334V291.6666666666668A83.3333333333333 83.3333333333333 0 0 1 291.6666666666667 208.3333333333334H708.3333333333333A83.3333333333333 83.3333333333333 0 0 1 791.6666666666666 291.6666666666668V708.3333333333334A83.3333333333333 83.3333333333333 0 0 1 708.3333333333333 791.6666666666667z" />
    <glyph glyph-name="checkbox-fill"
      unicode="&#xEA6F;"
      horiz-adv-x="1000" d="M125 708.3333333333334A166.6666666666667 166.6666666666667 0 0 0 291.6666666666667 875H708.3333333333333A166.6666666666667 166.6666666666667 0 0 0 875 708.3333333333334V291.6666666666668A166.6666666666667 166.6666666666667 0 0 0 708.3333333333333 125H291.6666666666667A166.6666666666667 166.6666666666667 0 0 0 125 291.6666666666668zM696.125 574.7083333333333L637.2083333333334 633.625L458.3333333333334 454.75L362.7916666666668 550.2916666666667L303.875 491.3750000000001L458.3333333333334 336.9166666666668z" />
    <glyph glyph-name="checkbox-indeterminate-fill"
      unicode="&#xEA70;"
      horiz-adv-x="1000" d="M125 708.3333333333334A166.6666666666667 166.6666666666667 0 0 0 291.6666666666667 875H708.3333333333333A166.6666666666667 166.6666666666667 0 0 0 875 708.3333333333334V291.6666666666668A166.6666666666667 166.6666666666667 0 0 0 708.3333333333333 125H291.6666666666667A166.6666666666667 166.6666666666667 0 0 0 125 291.6666666666668zM333.3333333333334 458.3333333333334H666.6666666666666V541.6666666666667H333.3333333333334z" />
    <glyph glyph-name="checkbox-indeterminate-line"
      unicode="&#xEA71;"
      horiz-adv-x="1000" d="M333.3333333333334 458.3333333333334H666.6666666666666V541.6666666666667H333.3333333333334zM291.6666666666667 875A166.6666666666667 166.6666666666667 0 0 1 125 708.3333333333334V291.6666666666668A166.6666666666667 166.6666666666667 0 0 1 291.6666666666667 125H708.3333333333333A166.6666666666667 166.6666666666667 0 0 1 875 291.6666666666668V708.3333333333334A166.6666666666667 166.6666666666667 0 0 1 708.3333333333333 875zM208.3333333333334 708.3333333333334A83.3333333333333 83.3333333333333 0 0 0 291.6666666666667 791.6666666666667H708.3333333333333A83.3333333333333 83.3333333333333 0 0 0 791.6666666666666 708.3333333333334V291.6666666666668A83.3333333333333 83.3333333333333 0 0 0 708.3333333333333 208.3333333333334H291.6666666666667A83.3333333333333 83.3333333333333 0 0 0 208.3333333333334 291.6666666666668z" />
    <glyph glyph-name="checkbox-line"
      unicode="&#xEA72;"
      horiz-adv-x="1000" d="M458.3333333333334 336.9166666666668L696.125 574.7083333333333L637.2083333333334 633.625L458.3333333333334 454.75L362.7916666666668 550.2916666666667L303.875 491.3750000000001zM291.6666666666667 875A166.6666666666667 166.6666666666667 0 0 1 125 708.3333333333334V291.6666666666668A166.6666666666667 166.6666666666667 0 0 1 291.6666666666667 125H708.3333333333333A166.6666666666667 166.6666666666667 0 0 1 875 291.6666666666668V708.3333333333334A166.6666666666667 166.6666666666667 0 0 1 708.3333333333333 875zM208.3333333333334 708.3333333333334A83.3333333333333 83.3333333333333 0 0 0 291.6666666666667 791.6666666666667H708.3333333333333A83.3333333333333 83.3333333333333 0 0 0 791.6666666666666 708.3333333333334V291.6666666666668A83.3333333333333 83.3333333333333 0 0 0 708.3333333333333 208.3333333333334H291.6666666666667A83.3333333333333 83.3333333333333 0 0 0 208.3333333333334 291.6666666666668z" />
    <glyph glyph-name="checkbox-multiple-blank-fill"
      unicode="&#xEA73;"
      horiz-adv-x="1000" d="M416.6666666666667 916.6666666666666A125 125 0 0 1 291.6666666666667 791.6666666666667V708.3333333333334H208.3333333333334A125 125 0 0 1 83.3333333333334 583.3333333333334V208.3333333333334A125 125 0 0 1 208.3333333333334 83.3333333333334H583.3333333333333A125 125 0 0 1 708.3333333333333 208.3333333333334V291.6666666666668H791.6666666666666A125 125 0 0 1 916.6666666666666 416.6666666666668V791.6666666666667A125 125 0 0 1 791.6666666666666 916.6666666666666zM708.3333333333333 375V583.3333333333334A125 125 0 0 1 583.3333333333333 708.3333333333334H375.0000000000001V791.6666666666667A41.6666666666667 41.6666666666667 0 0 0 416.6666666666667 833.3333333333334H791.6666666666666A41.6666666666667 41.6666666666667 0 0 0 833.3333333333333 791.6666666666667V416.6666666666668A41.6666666666667 41.6666666666667 0 0 0 791.6666666666666 375z" />
    <glyph glyph-name="checkbox-multiple-blank-line"
      unicode="&#xEA74;"
      horiz-adv-x="1000" d="M416.6666666666667 916.6666666666666A125 125 0 0 1 291.6666666666667 791.6666666666667V708.3333333333334H208.3333333333334A125 125 0 0 1 83.3333333333334 583.3333333333334V208.3333333333334A125 125 0 0 1 208.3333333333334 83.3333333333334H583.3333333333333A125 125 0 0 1 708.3333333333333 208.3333333333334V291.6666666666668H791.6666666666666A125 125 0 0 1 916.6666666666666 416.6666666666668V791.6666666666667A125 125 0 0 1 791.6666666666666 916.6666666666666zM708.3333333333333 375V583.3333333333334A125 125 0 0 1 583.3333333333333 708.3333333333334H375.0000000000001V791.6666666666667A41.6666666666667 41.6666666666667 0 0 0 416.6666666666667 833.3333333333334H791.6666666666666A41.6666666666667 41.6666666666667 0 0 0 833.3333333333333 791.6666666666667V416.6666666666668A41.6666666666667 41.6666666666667 0 0 0 791.6666666666666 375zM166.6666666666667 583.3333333333334A41.6666666666667 41.6666666666667 0 0 0 208.3333333333334 625H583.3333333333333A41.6666666666667 41.6666666666667 0 0 0 625 583.3333333333334V208.3333333333334A41.6666666666667 41.6666666666667 0 0 0 583.3333333333333 166.6666666666668H208.3333333333334A41.6666666666667 41.6666666666667 0 0 0 166.6666666666667 208.3333333333334z" />
    <glyph glyph-name="checkbox-multiple-fill"
      unicode="&#xEA75;"
      horiz-adv-x="1000" d="M416.6666666666667 916.6666666666666A125 125 0 0 1 291.6666666666667 791.6666666666667V708.3333333333334H208.3333333333334A125 125 0 0 1 83.3333333333334 583.3333333333334V208.3333333333334A125 125 0 0 1 208.3333333333334 83.3333333333334H583.3333333333333A125 125 0 0 1 708.3333333333333 208.3333333333334V291.6666666666668H791.6666666666666A125 125 0 0 1 916.6666666666666 416.6666666666668V791.6666666666667A125 125 0 0 1 791.6666666666666 916.6666666666666zM708.3333333333333 583.3333333333334V375H791.6666666666666A41.6666666666667 41.6666666666667 0 0 1 833.3333333333333 416.6666666666668V791.6666666666667A41.6666666666667 41.6666666666667 0 0 1 791.6666666666666 833.3333333333334H416.6666666666667A41.6666666666667 41.6666666666667 0 0 1 375.0000000000001 791.6666666666667V708.3333333333334H583.3333333333333A125 125 0 0 0 708.3333333333333 583.3333333333334M571.125 470.5416666666666L354.1666666666667 253.5833333333333L220.5416666666667 387.2083333333334L279.4583333333334 446.125L354.1666666666667 371.4166666666668L512.2083333333333 529.4583333333334z" />
    <glyph glyph-name="checkbox-multiple-line"
      unicode="&#xEA76;"
      horiz-adv-x="1000" d="M571.125 470.5416666666666L354.1666666666667 253.5833333333333L220.5416666666667 387.2083333333334L279.4583333333334 446.125L354.1666666666667 371.4166666666668L512.2083333333333 529.4583333333334zM416.6666666666667 916.6666666666666A125 125 0 0 1 291.6666666666667 791.6666666666667V708.3333333333334H208.3333333333334A125 125 0 0 1 83.3333333333334 583.3333333333334V208.3333333333334A125 125 0 0 1 208.3333333333334 83.3333333333334H583.3333333333333A125 125 0 0 1 708.3333333333333 208.3333333333334V291.6666666666668H791.6666666666666A125 125 0 0 1 916.6666666666666 416.6666666666668V791.6666666666667A125 125 0 0 1 791.6666666666666 916.6666666666666zM708.3333333333333 375V583.3333333333334A125 125 0 0 1 583.3333333333333 708.3333333333334H375.0000000000001V791.6666666666667A41.6666666666667 41.6666666666667 0 0 0 416.6666666666667 833.3333333333334H791.6666666666666A41.6666666666667 41.6666666666667 0 0 0 833.3333333333333 791.6666666666667V416.6666666666668A41.6666666666667 41.6666666666667 0 0 0 791.6666666666666 375zM208.3333333333334 625H583.3333333333333A41.6666666666667 41.6666666666667 0 0 0 625 583.3333333333334V208.3333333333334A41.6666666666667 41.6666666666667 0 0 0 583.3333333333333 166.6666666666668H208.3333333333334A41.6666666666667 41.6666666666667 0 0 0 166.6666666666667 208.3333333333334V583.3333333333334A41.6666666666667 41.6666666666667 0 0 0 208.3333333333334 625" />
    <glyph glyph-name="chevron-down-fill"
      unicode="&#xEA77;"
      horiz-adv-x="1000" d="M250 625L220.5416666666666 553.875L470.5416666666666 303.875H529.4583333333333L779.4583333333334 553.875L750 625z" />
    <glyph glyph-name="chevron-down-line"
      unicode="&#xEA78;"
      horiz-adv-x="1000" d="M220.5416666666666 553.875L279.4583333333333 612.7916666666666L500 392.25L720.5416666666666 612.7916666666667L779.4583333333334 553.875L500 274.4166666666667z" />
    <glyph glyph-name="chevron-down-sm-fill"
      unicode="&#xEA79;"
      horiz-adv-x="1000" d="M333.3333333333333 604.1666666666667L303.875 533.0416666666667L470.5416666666666 366.375H529.4583333333333L696.125 533.0416666666667L666.6666666666666 604.1666666666667z" />
    <glyph glyph-name="chevron-down-sm-line"
      unicode="&#xEA7A;"
      horiz-adv-x="1000" d="M303.875 533.0416666666667L362.7916666666667 591.9583333333333L500 454.75L637.2083333333333 591.9583333333334L696.125 533.0416666666667L500 336.9166666666668z" />
    <glyph glyph-name="chevron-left-fill"
      unicode="&#xEA7B;"
      horiz-adv-x="1000" d="M589.4375 779.4583333333334L660.5625 750V250L589.4375 220.5416666666666L339.4375 470.5416666666666V529.4583333333333z" />
    <glyph glyph-name="chevron-left-line"
      unicode="&#xEA7C;"
      horiz-adv-x="1000" d="M610.2708333333333 779.4583333333334L330.8125 500L610.2708333333333 220.5416666666666L669.1875 279.4583333333334L448.6458333333333 500L669.1875 720.5416666666667z" />
    <glyph glyph-name="chevron-left-sm-fill"
      unicode="&#xEA7D;"
      horiz-adv-x="1000" d="M618.8958333333333 333.3333333333334L547.7708333333333 303.875L381.1041666666667 470.5416666666666V529.4583333333333L547.7708333333333 696.125L618.8958333333333 666.6666666666667z" />
    <glyph glyph-name="chevron-left-sm-line"
      unicode="&#xEA7E;"
      horiz-adv-x="1000" d="M568.6041666666665 303.875L627.5208333333333 362.7916666666667L490.3124999999999 500L627.5208333333333 637.2083333333333L568.6041666666665 696.125L372.4791666666667 500z" />
    <glyph glyph-name="chevron-right-fill"
      unicode="&#xEA7F;"
      horiz-adv-x="1000" d="M410.5625 779.4583333333334L339.4375 750V250L410.5625 220.5416666666666L660.5625 470.5416666666666V529.4583333333333z" />
    <glyph glyph-name="chevron-right-line"
      unicode="&#xEA80;"
      horiz-adv-x="1000" d="M389.7291666666667 779.4583333333334L669.1875 500L389.7291666666667 220.5416666666666L330.8125000000001 279.4583333333334L551.3541666666667 500L330.8125 720.5416666666667z" />
    <glyph glyph-name="chevron-right-sm-fill"
      unicode="&#xEA81;"
      horiz-adv-x="1000" d="M381.1041666666667 333.3333333333334L452.2291666666666 303.875L618.8958333333333 470.5416666666666V529.4583333333333L452.2291666666666 696.125L381.1041666666667 666.6666666666667z" />
    <glyph glyph-name="chevron-right-sm-line"
      unicode="&#xEA82;"
      horiz-adv-x="1000" d="M431.3958333333334 303.875L372.4791666666668 362.7916666666667L509.6875000000001 500L372.4791666666667 637.2083333333333L431.3958333333333 696.125L627.5208333333333 500z" />
    <glyph glyph-name="chevron-up-fill"
      unicode="&#xEA83;"
      horiz-adv-x="1000" d="M250 375L220.5416666666666 446.1250000000001L470.5416666666666 696.125H529.4583333333333L779.4583333333334 446.1250000000001L750 375z" />
    <glyph glyph-name="chevron-up-line"
      unicode="&#xEA84;"
      horiz-adv-x="1000" d="M220.5416666666666 446.1250000000001L279.4583333333333 387.2083333333334L500 607.75L720.5416666666666 387.2083333333334L779.4583333333334 446.125L500 725.5833333333333z" />
    <glyph glyph-name="chevron-up-sm-fill"
      unicode="&#xEA85;"
      horiz-adv-x="1000" d="M333.3333333333333 395.8333333333334L303.875 466.9583333333334L470.5416666666666 633.625H529.4583333333333L696.125 466.9583333333334L666.6666666666666 395.8333333333334z" />
    <glyph glyph-name="chevron-up-sm-line"
      unicode="&#xEA86;"
      horiz-adv-x="1000" d="M303.875 466.9583333333334L362.7916666666667 408.0416666666668L500 545.25L637.2083333333333 408.0416666666667L696.125 466.9583333333334L500 663.0833333333333z" />
    <glyph glyph-name="close-circle-fill"
      unicode="&#xEA87;"
      horiz-adv-x="1000" d="M500.0000000000001 83.3333333333334C730.125 83.3333333333334 916.6666666666666 269.875 916.6666666666666 500S730.125 916.6666666666666 500.0000000000001 916.6666666666666S83.3333333333334 730.125 83.3333333333334 500S269.8750000000001 83.3333333333334 500.0000000000001 83.3333333333334M603.125 337.9166666666667L500.0000000000001 441.125L396.8750000000001 337.9166666666667L337.9583333333334 396.8333333333334L441.0833333333334 500L337.9166666666667 603.125L396.8333333333333 662.0416666666667L500.0000000000001 558.9166666666667L603.125 662.0416666666667L662.0416666666666 603.125L558.9166666666666 500L662.0416666666666 396.875z" />
    <glyph glyph-name="close-circle-line"
      unicode="&#xEA88;"
      horiz-adv-x="1000" d="M441.0833333333334 500L337.9166666666667 603.125L396.8333333333333 662.0416666666667L500.0000000000001 558.9166666666667L603.125 662.0416666666667L662.0416666666666 603.125L558.9166666666666 500L662.0416666666666 396.875L603.125 337.9583333333334L500.0000000000001 441.0833333333334L396.8750000000001 337.9166666666667L337.9583333333334 396.8333333333334zM83.3333333333334 500C83.3333333333334 730.125 269.8750000000001 916.6666666666666 500.0000000000001 916.6666666666666S916.6666666666666 730.125 916.6666666666666 500S730.125 83.3333333333334 500.0000000000001 83.3333333333334S83.3333333333334 269.875 83.3333333333334 500M500.0000000000001 833.3333333333334A333.3333333333333 333.3333333333333 0 1 1 500.0000000000001 166.6666666666668A333.3333333333333 333.3333333333333 0 0 1 500.0000000000001 833.3333333333334" />
    <glyph glyph-name="close-fill"
      unicode="&#xEA89;"
      horiz-adv-x="1000" d="M500.0000000000001 411.625L691.5 220.0833333333334L779.9166666666667 308.5L588.3333333333333 500L779.875 691.5L691.4583333333333 779.9166666666667L500.0000000000001 588.3333333333333L308.5000000000001 779.9166666666667L220.0833333333334 691.5L411.6666666666668 500L220.1250000000001 308.5L308.5416666666668 220.0833333333334z" />
    <glyph glyph-name="close-line"
      unicode="&#xEA8A;"
      horiz-adv-x="1000" d="M500.0000000000001 441.0833333333334L706.25 234.8333333333334L765.1666666666667 293.7500000000001L558.9166666666667 500L765.1666666666667 706.25L706.25 765.1666666666667L500.0000000000001 558.9166666666667L293.7500000000001 765.1666666666667L234.8333333333334 706.25L441.0833333333334 500L234.8333333333334 293.7500000000001L293.7500000000001 234.8333333333334z" />
    <glyph glyph-name="contacts-fill"
      unicode="&#xEA8B;"
      horiz-adv-x="1000" d="M187.5 708.3333333333334A208.3333333333334 208.3333333333334 0 1 0 604.1666666666666 708.3333333333334A208.3333333333334 208.3333333333334 0 0 0 187.5 708.3333333333334M20.8333333333333 208.3333333333334A208.3333333333334 208.3333333333334 0 0 0 229.1666666666667 416.6666666666668H562.4999999999999A208.3333333333334 208.3333333333334 0 0 0 770.8333333333333 208.3333333333334V83.3333333333334H20.8333333333333zM979.1666666666666 833.3333333333334H770.8333333333333V750H979.1666666666666zM812.4999999999999 416.6666666666668H979.1666666666666V333.3333333333334H812.4999999999999zM979.1666666666666 625H687.4999999999999V541.6666666666667H979.1666666666666z" />
    <glyph glyph-name="contacts-line"
      unicode="&#xEA8C;"
      horiz-adv-x="1000" d="M187.5 708.3333333333334A208.3333333333334 208.3333333333334 0 1 0 604.1666666666666 708.3333333333334A208.3333333333334 208.3333333333334 0 0 0 187.5 708.3333333333334M395.8333333333333 833.3333333333334A125 125 0 1 1 395.8333333333333 583.3333333333334A125 125 0 0 1 395.8333333333333 833.3333333333334M20.8333333333333 208.3333333333334A208.3333333333334 208.3333333333334 0 0 0 229.1666666666667 416.6666666666668H562.4999999999999A208.3333333333334 208.3333333333334 0 0 0 770.8333333333333 208.3333333333334V83.3333333333334H687.4999999999999V208.3333333333334A125 125 0 0 1 562.4999999999999 333.3333333333334H229.1666666666667A125 125 0 0 1 104.1666666666667 208.3333333333334V83.3333333333334H20.8333333333333zM979.1666666666666 833.3333333333334H770.8333333333333V750H979.1666666666666zM812.4999999999999 416.6666666666668H979.1666666666666V333.3333333333334H812.4999999999999zM979.1666666666666 625H687.4999999999999V541.6666666666667H979.1666666666666z" />
    <glyph glyph-name="contract-left-fill"
      unicode="&#xEA8D;"
      horiz-adv-x="1000" d="M239.5833333333333 791.6666666666667V208.3333333333334H135.4166666666666V791.6666666666667zM336.4166666666667 530.7083333333334L586.4166666666665 759.875L656.25 729.1666666666667V541.6666666666667H864.5833333333333V458.3333333333334H656.25V270.8333333333334L586.4166666666665 240.1250000000001L336.4166666666667 469.2916666666667z" />
    <glyph glyph-name="contract-left-line"
      unicode="&#xEA8E;"
      horiz-adv-x="1000" d="M616.375 800.2916666666667L675.2916666666667 741.375L475.5833333333334 541.6666666666667H854.1666666666667V458.3333333333334H475.5833333333334L675.2916666666667 258.6250000000001L616.375 199.7083333333334L316.0833333333334 500zM250.0000000000001 791.6666666666667V208.3333333333334H145.8333333333334V791.6666666666667z" />
    <glyph glyph-name="contract-left-right-fill"
      unicode="&#xEA8F;"
      horiz-adv-x="1000" d="M196.125 758.625L425.2916666666667 529.4583333333334V470.5416666666667L196.125 241.375L125 270.8333333333334V729.1666666666667zM803.8749999999999 758.625L574.7083333333333 529.4583333333334V470.5416666666667L803.8749999999999 241.375L875 270.8333333333334V729.1666666666667z" />
    <glyph glyph-name="contract-left-right-line"
      unicode="&#xEA90;"
      horiz-adv-x="1000" d="M137.2083333333334 699.7083333333334L196.125 758.625L454.75 500L196.125 241.375L137.2083333333334 300.2916666666668L336.9166666666668 500zM862.7916666666666 699.7083333333334L803.8749999999999 758.625L545.25 500L803.8749999999999 241.375L862.7916666666666 300.2916666666668L663.0833333333333 500z" />
    <glyph glyph-name="contract-right-fill"
      unicode="&#xEA91;"
      horiz-adv-x="1000" d="M760.4166666666667 791.6666666666667V208.3333333333334H864.5833333333333V791.6666666666667zM663.5833333333333 530.7083333333334L413.5833333333333 759.875L343.75 729.1666666666667V541.6666666666667H135.4166666666667V458.3333333333334H343.75V270.8333333333334L413.5833333333333 240.1250000000001L663.5833333333333 469.2916666666667z" />
    <glyph glyph-name="contract-right-line"
      unicode="&#xEA92;"
      horiz-adv-x="1000" d="M383.6250000000001 800.2916666666667L324.7083333333334 741.375L524.4166666666667 541.6666666666667H145.8333333333334V458.3333333333334H524.4166666666667L324.7083333333334 258.6250000000001L383.6250000000001 199.7083333333334L683.9166666666667 500zM854.1666666666667 791.6666666666667H750V208.3333333333334H854.1666666666667z" />
    <glyph glyph-name="contract-up-down-fill"
      unicode="&#xEA93;"
      horiz-adv-x="1000" d="M241.375 803.875L470.5416666666666 574.7083333333333H529.4583333333333L758.625 803.875L729.1666666666666 875H270.8333333333333zM241.375 196.1250000000001L470.5416666666666 425.2916666666668H529.4583333333333L758.625 196.1250000000001L729.1666666666666 125H270.8333333333333z" />
    <glyph glyph-name="contract-up-down-line"
      unicode="&#xEA94;"
      horiz-adv-x="1000" d="M300.2916666666667 862.7916666666666L241.375 803.875L500 545.25L758.625 803.875L699.7083333333333 862.7916666666666L500 663.0833333333333zM300.2916666666667 137.2083333333334L241.375 196.1250000000001L500 454.75L758.625 196.1250000000001L699.7083333333333 137.2083333333334L500 336.9166666666668z" />
    <glyph glyph-name="corner-down-left-fill"
      unicode="&#xEA95;"
      horiz-adv-x="1000" d="M733.4791666666666 500V791.6666666666667H816.8125V416.6666666666668H483.4791666666667V229.1666666666668L412.3541666666667 199.7083333333334L183.1875 428.875V487.7916666666666L412.3541666666667 716.9583333333333L483.4791666666667 687.5V500z" />
    <glyph glyph-name="corner-down-left-line"
      unicode="&#xEA96;"
      horiz-adv-x="1000" d="M748.2083333333333 791.6666666666667V500H327.9583333333334L486.0000000000001 658.0416666666666L427.0833333333335 716.9583333333333L168.4583333333334 458.3333333333334L427.0833333333333 199.7083333333334L486 258.6250000000001L327.9583333333334 416.6666666666668H831.5416666666667V791.6666666666667z" />
    <glyph glyph-name="corner-down-right-fill"
      unicode="&#xEA97;"
      horiz-adv-x="1000" d="M266.5208333333333 500V791.6666666666667H183.1875V416.6666666666668H516.5208333333333V229.1666666666668L587.6458333333333 199.7083333333334L816.8125 428.875V487.7916666666666L587.6458333333333 716.9583333333333L516.5208333333333 687.5V500z" />
    <glyph glyph-name="corner-down-right-line"
      unicode="&#xEA98;"
      horiz-adv-x="1000" d="M251.7916666666667 791.6666666666667V500H672.0416666666665L514 658.0416666666666L572.9166666666667 716.9583333333333L831.5416666666667 458.3333333333334L572.9166666666667 199.7083333333334L514 258.6250000000001L672.0416666666665 416.6666666666668H168.4583333333334V791.6666666666667z" />
    <glyph glyph-name="corner-left-down-fill"
      unicode="&#xEA99;"
      horiz-adv-x="1000" d="M504.3125000000001 708.3333333333334H795.9791666666667V791.6666666666667H420.9791666666667V458.3333333333334H233.4791666666667L204.0208333333334 387.2083333333334L433.1875 158.0416666666666H492.1041666666666L721.2708333333335 387.2083333333334L691.8125 458.3333333333334H504.3125000000001z" />
    <glyph glyph-name="corner-left-down-line"
      unicode="&#xEA9A;"
      horiz-adv-x="1000" d="M795.9791666666667 708.3333333333334H504.3125000000001V288.0833333333335L662.3541666666667 446.1250000000001L721.2708333333335 387.2083333333334L462.6458333333334 128.5833333333334L204.0208333333334 387.2083333333334L262.9375000000001 446.125L420.9791666666667 288.0833333333335V791.6666666666667H795.9791666666667z" />
    <glyph glyph-name="corner-left-up-fill"
      unicode="&#xEA9B;"
      horiz-adv-x="1000" d="M691.8125 541.6666666666667L721.2708333333334 612.7916666666667L492.1041666666667 841.9583333333334H433.1875L204.0208333333334 612.7916666666667L233.4791666666667 541.6666666666667H420.9791666666667V208.3333333333334H795.9791666666666V291.6666666666668H504.3125V541.6666666666667z" />
    <glyph glyph-name="corner-left-up-line"
      unicode="&#xEA9C;"
      horiz-adv-x="1000" d="M504.3125000000001 711.9166666666667L662.3541666666667 553.875L721.2708333333335 612.7916666666666L462.6458333333334 871.4166666666667L204.0208333333334 612.7916666666667L262.9375000000001 553.875L420.9791666666667 711.9166666666667V208.3333333333334H795.9791666666667V291.6666666666668H504.3125000000001z" />
    <glyph glyph-name="corner-right-down-fill"
      unicode="&#xEA9D;"
      horiz-adv-x="1000" d="M495.6875000000001 708.3333333333334H204.0208333333334V791.6666666666667H579.0208333333333V458.3333333333334H766.5208333333333L795.9791666666667 387.2083333333334L566.8125 158.0416666666666H507.8958333333334L278.7291666666668 387.2083333333334L308.1875000000001 458.3333333333334H495.6875000000001z" />
    <glyph glyph-name="corner-right-down-line"
      unicode="&#xEA9E;"
      horiz-adv-x="1000" d="M204.0208333333334 708.3333333333334H495.6875000000001V288.0833333333335L337.6458333333335 446.1250000000001L278.7291666666668 387.2083333333334L537.3541666666667 128.5833333333334L795.9791666666667 387.2083333333334L737.0625 446.125L579.0208333333333 288.0833333333335V791.6666666666667H204.0208333333334z" />
    <glyph glyph-name="corner-right-up-fill"
      unicode="&#xEA9F;"
      horiz-adv-x="1000" d="M308.1875000000001 541.6666666666667L278.7291666666667 612.7916666666667L507.8958333333333 841.9583333333334H566.8125L795.9791666666667 612.7916666666667L766.5208333333333 541.6666666666667H579.0208333333333V208.3333333333334H204.0208333333334V291.6666666666668H495.6875000000001V541.6666666666667z" />
    <glyph glyph-name="corner-right-up-line"
      unicode="&#xEAA0;"
      horiz-adv-x="1000" d="M495.6875000000001 711.9166666666667L337.6458333333335 553.875L278.7291666666668 612.7916666666666L537.3541666666667 871.4166666666667L795.9791666666667 612.7916666666667L737.0625 553.875L579.0208333333333 711.9166666666667V208.3333333333334H204.0208333333334V291.6666666666668H495.6875000000001z" />
    <glyph glyph-name="corner-up-left-double-fill"
      unicode="&#xEAA1;"
      horiz-adv-x="1000" d="M240.3125 541.6666666666667L440.0208333333334 741.375L381.1041666666667 800.2916666666667L151.9375000000001 571.125V512.2083333333335L381.1041666666667 283.0416666666667L440.0208333333334 341.9583333333334zM568.6041666666665 800.2916666666667L639.7291666666667 770.8333333333334V583.3333333333334H848.0625V208.3333333333334H764.7291666666667V500H639.7291666666667V312.5L568.6041666666665 283.0416666666667L339.4375 512.2083333333333V571.125z" />
    <glyph glyph-name="corner-up-left-double-line"
      unicode="&#xEAA2;"
      horiz-adv-x="1000" d="M255.0416666666667 541.6666666666667L454.7500000000001 741.375L395.8333333333334 800.2916666666667L137.2083333333334 541.6666666666667L395.8333333333333 283.0416666666667L454.7499999999999 341.9583333333334zM525.875 583.3333333333334L683.9166666666667 741.375L625 800.2916666666667L366.3750000000001 541.6666666666667L625 283.0416666666667L683.9166666666666 341.9583333333334L525.875 500H779.4583333333334V208.3333333333334H862.7916666666666V583.3333333333334z" />
    <glyph glyph-name="corner-up-left-fill"
      unicode="&#xEAA3;"
      horiz-adv-x="1000" d="M483.4791666666667 312.5L412.3541666666667 283.0416666666667L183.1875 512.2083333333333V571.125L412.3541666666667 800.2916666666666L483.4791666666667 770.8333333333334V583.3333333333334H816.8125V208.3333333333334H733.4791666666666V500H483.4791666666667z" />
    <glyph glyph-name="corner-up-left-line"
      unicode="&#xEAA4;"
      horiz-adv-x="1000" d="M327.9583333333334 500L486.0000000000001 341.9583333333334L427.0833333333335 283.0416666666667L168.4583333333334 541.6666666666667L427.0833333333333 800.2916666666667L486 741.375L327.9583333333334 583.3333333333334H831.5416666666667V208.3333333333334H748.2083333333333V500z" />
    <glyph glyph-name="corner-up-right-double-fill"
      unicode="&#xEAA5;"
      horiz-adv-x="1000" d="M431.3958333333334 800.2916666666667L360.2708333333334 770.8333333333334V583.3333333333334H151.9375V208.3333333333334H235.2708333333334V500H360.2708333333334V312.5L431.3958333333334 283.0416666666667L660.5625 512.2083333333333V571.125zM759.6874999999999 541.6666666666667L559.9791666666666 741.375L618.8958333333333 800.2916666666667L848.0625 571.125V512.2083333333335L618.8958333333334 283.0416666666667L559.9791666666667 341.9583333333334z" />
    <glyph glyph-name="corner-up-right-double-line"
      unicode="&#xEAA6;"
      horiz-adv-x="1000" d="M474.125 583.3333333333334L316.0833333333333 741.375L374.9999999999999 800.2916666666667L633.6249999999999 541.6666666666667L375 283.0416666666667L316.0833333333334 341.9583333333334L474.125 500H220.5416666666667V208.3333333333334H137.2083333333333V583.3333333333334zM744.9583333333331 541.6666666666667L545.2499999999999 741.375L604.1666666666665 800.2916666666667L862.7916666666666 541.6666666666667L604.1666666666666 283.0416666666667L545.25 341.9583333333334z" />
    <glyph glyph-name="corner-up-right-fill"
      unicode="&#xEAA7;"
      horiz-adv-x="1000" d="M516.5208333333333 312.5L587.6458333333333 283.0416666666667L816.8125 512.2083333333333V571.125L587.6458333333333 800.2916666666666L516.5208333333333 770.8333333333334V583.3333333333334H183.1875V208.3333333333334H266.5208333333333V500H516.5208333333333z" />
    <glyph glyph-name="corner-up-right-line"
      unicode="&#xEAA8;"
      horiz-adv-x="1000" d="M672.0416666666665 500L514 341.9583333333334L572.9166666666667 283.0416666666667L831.5416666666667 541.6666666666667L572.9166666666667 800.2916666666667L514 741.375L672.0416666666665 583.3333333333334H168.4583333333334V208.3333333333334H251.7916666666667V500z" />
    <glyph glyph-name="criminal-fill"
      unicode="&#xEAA9;"
      horiz-adv-x="1000" d="M125.0000000000001 541.6666666666667A375 375 0 1 0 794.5416666666667 309.5000000000001A458.3333333333333 458.3333333333333 0 0 0 878.1666666666667 217.3333333333334L913.875 165.2500000000001L500.0000000000001 82.5000000000001L86.1250000000001 165.2916666666666L121.8333333333334 217.375A458.3333333333333 458.3333333333333 0 0 0 205.4583333333334 309.5416666666667A373.75 373.75 0 0 0 125.0000000000001 541.6666666666667M375.0000000000001 541.6666666666667C421.0416666666668 541.6666666666667 458.3333333333334 569.6666666666667 458.3333333333334 604.1666666666667S421.0416666666668 666.6666666666667 375.0000000000001 666.6666666666667S291.6666666666667 638.6666666666667 291.6666666666667 604.1666666666667S328.9583333333334 541.6666666666667 375.0000000000001 541.6666666666667M500.0000000000001 333.3333333333334C557.5 333.3333333333334 604.1666666666667 361.3333333333334 604.1666666666667 395.8333333333334S557.5 458.3333333333334 500.0000000000001 458.3333333333334S395.8333333333334 430.3333333333334 395.8333333333334 395.8333333333334S442.5 333.3333333333334 500.0000000000001 333.3333333333334M708.3333333333333 604.1666666666667C708.3333333333333 638.6666666666667 671.0416666666667 666.6666666666667 625 666.6666666666667S541.6666666666667 638.6666666666667 541.6666666666667 604.1666666666667S578.9583333333333 541.6666666666667 625 541.6666666666667S708.3333333333333 569.6666666666667 708.3333333333333 604.1666666666667" />
    <glyph glyph-name="criminal-line"
      unicode="&#xEAAA;"
      horiz-adv-x="1000" d="M375.0000000000001 541.6666666666667C421.0416666666668 541.6666666666667 458.3333333333334 569.6666666666667 458.3333333333334 604.1666666666667S421.0416666666668 666.6666666666667 375.0000000000001 666.6666666666667S291.6666666666667 638.6666666666667 291.6666666666667 604.1666666666667S328.9583333333334 541.6666666666667 375.0000000000001 541.6666666666667M604.1666666666667 395.8333333333334C604.1666666666667 361.3333333333334 557.5 333.3333333333334 500.0000000000001 333.3333333333334S395.8333333333334 361.3333333333334 395.8333333333334 395.8333333333334S442.5 458.3333333333334 500.0000000000001 458.3333333333334S604.1666666666667 430.3333333333334 604.1666666666667 395.8333333333334M625 541.6666666666667C671.0416666666667 541.6666666666667 708.3333333333333 569.6666666666667 708.3333333333333 604.1666666666667S671.0416666666667 666.6666666666667 625 666.6666666666667S541.6666666666667 638.6666666666667 541.6666666666667 604.1666666666667S578.9583333333333 541.6666666666667 625 541.6666666666667M500.0000000000001 916.6666666666666A375 375 0 0 1 205.4583333333334 309.5416666666668A458.3333333333333 458.3333333333333 0 0 1 121.8333333333334 217.3333333333334L86.1250000000001 165.2500000000001L500.0000000000001 82.5000000000001L913.875 165.2916666666666L878.1666666666667 217.375A458.3333333333333 458.3333333333333 0 0 1 794.5 309.5416666666667A375 375 0 0 1 500.0000000000001 916.6666666666666M208.3333333333334 541.6666666666667A291.6666666666667 291.6666666666667 0 1 0 704.1666666666665 333.3333333333334L667.75 297.6666666666667L709.9583333333335 269.0833333333333Q741.2500000000002 247.875 767.625 221L500.0000000000001 167.5L232.3750000000001 221A375 375 0 0 0 290.0416666666668 269.0833333333333L332.2500000000001 297.6666666666667L295.8333333333334 333.3749999999999A290.8333333333333 290.8333333333333 0 0 0 208.3333333333334 541.6666666666667" />
    <glyph glyph-name="dashboard-fill"
      unicode="&#xEAAB;"
      horiz-adv-x="1000" d="M166.6666666666667 875L125 833.3333333333334V500L166.6666666666667 458.3333333333334H416.6666666666667L458.3333333333333 500V833.3333333333334L416.6666666666667 875zM583.3333333333333 875L541.6666666666666 833.3333333333334V666.6666666666667L583.3333333333333 625H833.3333333333333L875 666.6666666666667V833.3333333333334L833.3333333333333 875zM166.6666666666667 375L125 333.3333333333334V166.6666666666668L166.6666666666667 125H416.6666666666667L458.3333333333333 166.6666666666668V333.3333333333334L416.6666666666667 375zM583.3333333333333 541.6666666666667L541.6666666666666 500V166.6666666666668L583.3333333333333 125H833.3333333333333L875 166.6666666666668V500L833.3333333333333 541.6666666666667z" />
    </font>
</defs>
</svg>
