<svg xmlns="http://www.w3.org/2000/svg" width="24" height="24" fill="none">
  <path
    fill="currentColor"
    d="M9.285 10.09c-.34-.12-.703-.12-1.043 0-.341.12-.654.36-.883.703C7.129 11.136 7 11.559 7 12s.13.864.359 1.207c.229.342.542.583.883.703s.704.12 1.043 0c.342-.12.655-.36.884-.703l1.662 1.113a3.8 3.8 0 0 1-1.88 1.476 3.56 3.56 0 0 1-2.374 0 3.8 3.8 0 0 1-1.88-1.476A4.2 4.2 0 0 1 5 12c0-.826.24-1.638.697-2.32a3.8 3.8 0 0 1 1.88-1.476 3.56 3.56 0 0 1 2.374 0 3.8 3.8 0 0 1 1.88 1.476l-1.662 1.113a1.8 1.8 0 0 0-.884-.703m5.957 0c.34-.12.704-.12 1.043 0 .342.12.655.36.884.703l1.662-1.113a3.8 3.8 0 0 0-1.88-1.476 3.56 3.56 0 0 0-2.374 0 3.8 3.8 0 0 0-1.88 1.476A4.2 4.2 0 0 0 12 12c0 .826.24 1.638.697 2.32a3.8 3.8 0 0 0 1.88 1.476c.77.272 1.603.272 2.374 0a3.8 3.8 0 0 0 1.88-1.476l-1.662-1.113a1.8 1.8 0 0 1-.884.703c-.34.12-.703.12-1.043 0a1.8 1.8 0 0 1-.883-.703A2.2 2.2 0 0 1 14 12c0-.441.13-.864.359-1.207.229-.342.542-.583.883-.703"
  />
  <path
    fill="currentColor"
    d="M2 12C2 6.477 6.477 2 12 2s10 4.477 10 10-4.477 10-10 10S2 17.523 2 12m10-8a8 8 0 1 0 0 16 8 8 0 0 0 0-16"
  />
</svg>
