<svg xmlns="http://www.w3.org/2000/svg" width="24" height="24" fill="none">
  <path
    fill="currentColor"
    d="M17.5 13a1 1 0 1 0 0-2 1 1 0 0 0 0 2m-10-1a1 1 0 1 1-2 0 1 1 0 0 1 2 0m.625-2.875a1 1 0 1 0 0-2 1 1 0 0 0 0 2M13 6.5a1 1 0 1 1-2 0 1 1 0 0 1 2 0m3 .817a.5.5 0 0 0-.076.054l-4.775 3.393-.034.025a1.5 1.5 0 1 0 2.123 2.059l3.391-4.772a.5.5 0 0 0 .121-.326.5.5 0 0 0-.75-.433"
  />
  <path
    fill="currentColor"
    d="M12 2C6.477 2 2 6.477 2 12s4.477 10 10 10 10-4.477 10-10S17.523 2 12 2M4 12a8 8 0 1 1 16 0 8 8 0 0 1-16 0"
  />
</svg>
