<svg xmlns="http://www.w3.org/2000/svg" width="24" height="24" fill="none">
  <path
    fill="currentColor"
    fill-rule="evenodd"
    d="M6.256 7.191C7.755 5.785 9.616 4.5 12 4.5s4.245 1.285 5.744 2.691c.717.674 1.387 1.41 2.004 2.088l.09.099c.655.72 1.244 1.361 1.823 1.872l.85.75-.85.75c-.579.51-1.168 1.152-1.824 1.872l-.09.098c-.616.68-1.286 1.415-2.003 2.089C16.245 18.215 14.384 19.5 12 19.5s-4.245-1.285-5.744-2.691c-.717-.674-1.387-1.41-2.004-2.089l-.09-.098c-.655-.72-1.244-1.361-1.823-1.872l-.85-.75.85-.75c.579-.51 1.168-1.152 1.824-1.872l.09-.098c.616-.68 1.286-1.415 2.003-2.089M13 11h2v1a3 3 0 1 1-3-3h1z"
    clip-rule="evenodd"
  />
</svg>
