<svg xmlns="http://www.w3.org/2000/svg" width="24" height="24" fill="none">
  <path
    fill="currentColor"
    d="M14.793 4.207 16.586 6l-1.793 1.793 1.414 1.414L18 7.414l1.793 1.793 1.414-1.414L19.414 6l1.793-1.793-1.414-1.414L18 4.586l-1.793-1.793z"
  />
  <path
    fill="currentColor"
    d="M14.793 4.207 16.586 6l-1.793 1.793 1.414 1.414L18 7.414l1.793 1.793 1.414-1.414L19.414 6l1.793-1.793-1.414-1.414L18 4.586l-1.793-1.793z"
  />
  <path
    fill="currentColor"
    d="M14.793 4.207 16.586 6l-1.793 1.793 1.414 1.414L18 7.414l1.793 1.793 1.414-1.414L19.414 6l1.793-1.793-1.414-1.414L18 4.586l-1.793-1.793zM3 6c0 1.306.835 2.417 2 2.83v6.34a3.001 3.001 0 1 0 2 0V8.83A3.001 3.001 0 1 0 3 6"
  />
  <path
    fill="currentColor"
    d="M3 6c0 1.306.835 2.417 2 2.83v6.34a3.001 3.001 0 1 0 2 0V8.83A3.001 3.001 0 1 0 3 6"
  />
  <path
    fill="currentColor"
    d="M3 6c0 1.306.835 2.417 2 2.83v6.34a3.001 3.001 0 1 0 2 0V8.83A3.001 3.001 0 1 0 3 6m16 9.17V10h-2v5.17a3.001 3.001 0 1 0 2 0"
  />
  <path fill="currentColor" d="M19 15.17V10h-2v5.17a3.001 3.001 0 1 0 2 0" />
  <path fill="currentColor" d="M19 15.17V10h-2v5.17a3.001 3.001 0 1 0 2 0" />
</svg>
