<svg xmlns="http://www.w3.org/2000/svg" width="24" height="24" fill="none">
  <path
    fill="currentColor"
    d="M22 12c0 5.523-4.477 10-10 10S2 17.523 2 12 6.477 2 12 2s10 4.477 10 10m-7.191-6.722c.58 1.514 1.053 3.507 1.166 5.722h3.963a8.01 8.01 0 0 0-5.515-6.627q.201.425.386.905M13.972 11c-.11-1.957-.531-3.705-1.03-5.006-.293-.762-.6-1.338-.863-1.702L12 4.186l-.08.106c-.262.364-.569.94-.861 1.702-.5 1.3-.92 3.05-1.03 5.006zm-3.944 2c.11 1.957.531 3.705 1.03 5.006.293.762.6 1.338.863 1.702l.079.106.08-.106c.262-.364.569-.94.861-1.702.5-1.3.92-3.05 1.03-5.006zm-2.003-2c.113-2.215.585-4.208 1.166-5.722q.185-.48.386-.905A8.01 8.01 0 0 0 4.062 11zm-3.963 2a8.01 8.01 0 0 0 5.515 6.627 13 13 0 0 1-.386-.905c-.58-1.514-1.053-3.507-1.166-5.722zm11.913 0c-.113 2.215-.585 4.208-1.166 5.722q-.185.48-.386.904A8.01 8.01 0 0 0 19.938 13z"
  />
</svg>
