<svg xmlns="http://www.w3.org/2000/svg" width="24" height="24" fill="none">
  <path
    fill="currentColor"
    d="M1 12.5a6 6 0 0 1 6-6h10a6 6 0 0 1 6 6c0 1.51-.336 2.991-1.154 4.122C20.996 17.795 19.69 18.5 18 18.5c-.777 0-1.476-.266-2.073-.59-.593-.323-1.154-.742-1.643-1.113l-.095-.072c-.473-.358-.876-.664-1.267-.893-.417-.245-.708-.332-.922-.332s-.505.087-.922.332c-.391.229-.794.535-1.267.893l-.095.072c-.49.37-1.05.79-1.643 1.113-.597.324-1.296.59-2.073.59-1.69 0-2.996-.705-3.846-1.878C1.336 15.492 1 14.01 1 12.5m6-4a4 4 0 0 0-4 4c0 1.25.283 2.27.775 2.95.46.636 1.154 1.05 2.225 1.05.318 0 .68-.11 1.118-.347.442-.24.89-.57 1.39-.95l.117-.089c.446-.339.943-.716 1.442-1.008.543-.318 1.201-.606 1.933-.606s1.39.288 1.933.606c.5.292.996.67 1.442 1.008l.117.089c.5.38.948.71 1.39.95.438.238.8.347 1.118.347 1.07 0 1.765-.415 2.225-1.05.492-.68.775-1.7.775-2.95a4 4 0 0 0-4-4z"
  />
</svg>
