<svg xmlns="http://www.w3.org/2000/svg" width="24" height="24" fill="none">
  <path
    fill="currentColor"
    d="m12 1.135 8 7.429V9h-2.47L12 3.865 6 9.436V19h5v2H4V11H1.586L4 8.586v-.022z"
  />
  <path
    fill="currentColor"
    d="m12 1.135 8 7.429V9h-2.47L12 3.865 6 9.436V19h5v2H4V11H1.586L4 8.586v-.022z"
  />
  <path
    fill="currentColor"
    d="m12 1.135 8 7.429V9h-2.47L12 3.865 6 9.436V19h5v2H4V11H1.586L4 8.586v-.022z"
  />
  <path
    fill="currentColor"
    d="m12 1.135 8 7.429V9h-2.47L12 3.865 6 9.436V19h5v2H4V11H1.586L4 8.586v-.022z"
  />
  <path fill="currentColor" d="M14 11h9v7h-9zm2 2v3h5v-3z" />
  <path fill="currentColor" d="M14 11h9v7h-9zm2 2v3h5v-3z" />
  <path fill="currentColor" d="M14 11h9v7h-9zm2 2v3h5v-3z" />
  <path fill="currentColor" d="M14 11h9v7h-9zm2 2v3h5v-3zm8 6H13v2h11z" />
  <path fill="currentColor" d="M24 19H13v2h11z" />
  <path fill="currentColor" d="M24 19H13v2h11z" />
  <path fill="currentColor" d="M24 19H13v2h11z" />
</svg>
