<svg xmlns="http://www.w3.org/2000/svg" width="24" height="24" fill="none">
  <path fill="currentColor" d="M16 17v-2H8v2z" />
  <path fill="currentColor" d="M16 17v-2H8v2z" />
  <path fill="currentColor" d="M16 17v-2H8v2z" />
  <path fill="currentColor" d="M16 17v-2H8v2z" />
  <path
    fill="currentColor"
    d="m20 8.564-8-7.429-8 7.429v.022L1.586 11H4v10h16V11h2.415L20 8.586zM6 19V9.436l6-5.571 6 5.571V19z"
  />
  <path
    fill="currentColor"
    d="m20 8.564-8-7.429-8 7.429v.022L1.586 11H4v10h16V11h2.415L20 8.586zM6 19V9.436l6-5.571 6 5.571V19z"
  />
  <path
    fill="currentColor"
    d="m20 8.564-8-7.429-8 7.429v.022L1.586 11H4v10h16V11h2.415L20 8.586zM6 19V9.436l6-5.571 6 5.571V19z"
  />
  <path
    fill="currentColor"
    d="m20 8.564-8-7.429-8 7.429v.022L1.586 11H4v10h16V11h2.415L20 8.586zM6 19V9.436l6-5.571 6 5.571V19z"
  />
</svg>
