<svg xmlns="http://www.w3.org/2000/svg" width="24" height="24" fill="none">
  <path fill="currentColor" d="M16 17v-2H8v2z" />
  <path fill="currentColor" d="M16 17v-2H8v2z" />
  <path fill="currentColor" d="M16 17v-2H8v2z" />
  <path fill="currentColor" d="M16 17v-2H8v2z" />
  <path
    fill="currentColor"
    d="m21 8.5-9-6.75L3 8.5V21h18zM5 19V9.5l7-5.25 7 5.25V19z"
  />
  <path
    fill="currentColor"
    d="m21 8.5-9-6.75L3 8.5V21h18zM5 19V9.5l7-5.25 7 5.25V19z"
  />
  <path
    fill="currentColor"
    d="m21 8.5-9-6.75L3 8.5V21h18zM5 19V9.5l7-5.25 7 5.25V19z"
  />
  <path
    fill="currentColor"
    d="m21 8.5-9-6.75L3 8.5V21h18zM5 19V9.5l7-5.25 7 5.25V19z"
  />
</svg>
