<svg xmlns="http://www.w3.org/2000/svg" width="24" height="24" fill="none">
  <path
    fill="currentColor"
    d="m12 1.135 8 7.429v.022L22.415 11H20v10H4V11H1.586L4 8.586v-.022zM6 9.436V19h12V9.436l-6-5.571z"
  />
  <path
    fill="currentColor"
    d="m12 1.135 8 7.429v.022L22.415 11H20v10H4V11H1.586L4 8.586v-.022zM6 9.436V19h12V9.436l-6-5.571z"
  />
  <path
    fill="currentColor"
    d="m12 1.135 8 7.429v.022L22.415 11H20v10H4V11H1.586L4 8.586v-.022zM6 9.436V19h12V9.436l-6-5.571z"
  />
  <path
    fill="currentColor"
    d="m12 1.135 8 7.429v.022L22.415 11H20v10H4V11H1.586L4 8.586v-.022zM6 9.436V19h12V9.436l-6-5.571z"
  />
</svg>
