<svg xmlns="http://www.w3.org/2000/svg" width="24" height="24" fill="none">
  <path fill="currentColor" d="M22 3H2v1.009l10 7.727L22 4.01z" />
  <path
    fill="currentColor"
    d="M2 21V6.536l10 7.728 10-7.727v6.804A6 6 0 0 0 14.341 21z"
  />
  <path
    fill="currentColor"
    d="m16.036 17.866 1.014.585a3 3 0 0 0 0 1.098l-1.014.585 1 1.732 1.015-.586c.277.238.598.425.949.55V23h2v-1.17c.351-.125.672-.312.95-.55l1.014.586 1-1.732-1.014-.586a3 3 0 0 0 0-1.096l1.014-.586-1-1.732-1.014.586a3 3 0 0 0-.95-.55V15h-2v1.17a3 3 0 0 0-.95.55l-1.014-.586zM20 20a1 1 0 1 1 0-2 1 1 0 0 1 0 2"
  />
</svg>
