<svg xmlns="http://www.w3.org/2000/svg" width="24" height="24" fill="none">
  <path
    fill="currentColor"
    d="M11 1.5a5.67 5.67 0 0 0-3.29 1.03A5.33 5.33 0 0 0 5.8 5.026c-.7.207-1.295.514-1.87.859l-.026.015-.024.019c-.624.486-1.097 1.1-1.484 1.68l-.006.01-.006.01c-.626 1.042-.83 2.218-.693 3.378a5.94 5.94 0 0 0 1.186 2.918 5.3 5.3 0 0 0-.188 2.006c.07.773.348 1.523.676 2.179l.009.017.01.016c.61 1.017 1.495 1.839 2.53 2.321l.01.005c1.007.44 2.083.594 3.168.398.48.451 1.02.853 1.622 1.154.714.357 1.546.49 2.286.49a5.67 5.67 0 0 0 3.29-1.03 5.33 5.33 0 0 0 1.904-2.479 5.1 5.1 0 0 0 1.863-.909c.586-.456 1.146-1.005 1.506-1.716.618-1.038.82-2.208.683-3.362-.123-1.048-.476-2.06-1.124-2.917a5.3 5.3 0 0 0 .188-2.007c-.07-.773-.348-1.523-.675-2.179l-.009-.017-.01-.016c-.61-1.017-1.495-1.839-2.53-2.321l-.01-.005c-1.007-.44-2.083-.594-3.168-.398a6.9 6.9 0 0 0-1.622-1.154C12.572 1.633 11.74 1.5 11 1.5M9.598 4.135a2.87 2.87 0 0 1 1.75-.268l.022.004.022.002c.335.03.678.133 1.006.292L9.011 6.123a1 1 0 0 0-.263.188 1 1 0 0 0-.195.278 1.03 1.03 0 0 0-.116.525v4.759l-.687-.408V7.063c0-.61.168-1.258.478-1.723l.007-.01.006-.01c.313-.521.79-.902 1.357-1.185M18.487 12a.75.75 0 0 0-.139-.35.94.94 0 0 0-.358-.338l-4.125-2.38.7-.415 3.743 2.164c.556.334.982.767 1.245 1.293.282.564.439 1.159.386 1.795a3.2 3.2 0 0 1-.646 1.674 3.4 3.4 0 0 1-.793.747v-3.95c0-.055 0-.15-.013-.24m-5.425 8.188c-.578 0-1.054-.117-1.485-.339l3.411-1.972c.088-.045.18-.103.264-.187a1 1 0 0 0 .195-.279 1.03 1.03 0 0 0 .115-.525v-4.759l.688.408v4.354a3.185 3.185 0 0 1-3.188 3.299m1.07-14.384c.522-.313 1.11-.429 1.805-.429.562 0 1.147.203 1.703.59.516.403.94.896 1.146 1.408.127.32.199.684.212 1.055l-3.449-1.993-.013-.007a1 1 0 0 0-.298-.1c-.089-.016-.173-.016-.227-.016h-.021c-.055 0-.15 0-.24.013a.75.75 0 0 0-.349.138l-4.089 2.359v-.785l3.815-2.23zM4.108 11.37c-.223-.837-.159-1.82.262-2.559.25-.426.594-.784 1.005-1.058v3.944c0 .055 0 .149.013.24a.74.74 0 0 0 .13.338 1 1 0 0 0 .167.226c.085.084.176.143.264.188l4.123 2.378-.7.415-3.747-2.166-.002-.001a3.2 3.2 0 0 1-1.515-1.945m6.204 1.589v-1.92L12 10.076l1.687.964v1.92L12 13.924zm-4.88 4.038a3.14 3.14 0 0 1-.439-1.431l3.457 1.998.014.007a1.03 1.03 0 0 0 .525.116h.02c.056 0 .15 0 .241-.013a.75.75 0 0 0 .348-.138l4.09-2.359v.785L9.877 18.19l-.002.001a3.2 3.2 0 0 1-2.434.325l-.007-.002a3.15 3.15 0 0 1-2-1.513z"
  />
</svg>
