<svg xmlns="http://www.w3.org/2000/svg" width="24" height="24" fill="none">
  <path fill="currentColor" d="M12 9a1.5 1.5 0 1 0 0-3 1.5 1.5 0 0 0 0 3" />
  <path
    fill="currentColor"
    d="M12 9a1.5 1.5 0 1 0 0-3 1.5 1.5 0 0 0 0 3m-3 1.5a1.5 1.5 0 1 1-3 0 1.5 1.5 0 0 1 3 0"
  />
  <path
    fill="currentColor"
    d="M9 10.5a1.5 1.5 0 1 1-3 0 1.5 1.5 0 0 1 3 0m7.5 1.5a1.5 1.5 0 1 0 0-3 1.5 1.5 0 0 0 0 3"
  />
  <path fill="currentColor" d="M16.5 12a1.5 1.5 0 1 0 0-3 1.5 1.5 0 0 0 0 3" />
  <path
    fill="currentColor"
    d="M12 2C6.477 2 2 6.477 2 12s4.477 10 10 10c.856 0 1.17-.744 1.233-1.076.067-.353.027-.958-.475-1.356A2 2 0 0 1 14 16h2c1.664 0 3.178-.4 4.29-1.351C21.426 13.675 22 12.246 22 10.5c0-1.406-.597-2.737-1.325-3.804-.724-1.062-1.642-1.96-2.457-2.528A9.96 9.96 0 0 0 12 2M4 12a8 8 0 0 1 12.995-6.25l.028.023.03.02c.614.424 1.372 1.153 1.97 2.03.602.883.977 1.821.977 2.677 0 1.291-.408 2.113-1.011 2.63-.63.538-1.615.87-2.989.87h-2a4 4 0 0 0-3.547 5.85A8 8 0 0 1 4 12"
  />
  <path
    fill="currentColor"
    d="M12 2C6.477 2 2 6.477 2 12s4.477 10 10 10c.856 0 1.17-.744 1.233-1.076.067-.353.027-.958-.475-1.356A2 2 0 0 1 14 16h2c1.664 0 3.178-.4 4.29-1.351C21.426 13.675 22 12.246 22 10.5c0-1.406-.597-2.737-1.325-3.804-.724-1.062-1.642-1.96-2.457-2.528A9.96 9.96 0 0 0 12 2M4 12a8 8 0 0 1 12.995-6.25l.028.023.03.02c.614.424 1.372 1.153 1.97 2.03.602.883.977 1.821.977 2.677 0 1.291-.408 2.113-1.011 2.63-.63.538-1.615.87-2.989.87h-2a4 4 0 0 0-3.547 5.85A8 8 0 0 1 4 12"
  />
</svg>
