<svg xmlns="http://www.w3.org/2000/svg" width="24" height="24" fill="none">
  <path fill="currentColor" d="M9 6.5a1.5 1.5 0 1 1-3 0 1.5 1.5 0 0 1 3 0" />
  <path
    fill="currentColor"
    d="M7.5 14.338c.478-.425.955-.848 1.409-1.3a25 25 0 0 0 1.612-1.763c.586-.71 1.192-1.537 1.656-2.398.456-.846.823-1.81.823-2.774C13 3.199 10.448 1 7.5 1S2 3.2 2 6.103c0 .963.367 1.928.823 2.774.464.86 1.07 1.688 1.656 2.398a25 25 0 0 0 1.612 1.763c.453.452.931.875 1.409 1.3M4 6.103C4 4.474 5.478 3 7.5 3S11 4.474 11 6.103c0 .485-.196 1.106-.583 1.825-.38.704-.899 1.42-1.438 2.073A23 23 0 0 1 7.5 11.619c-.406-.405-.944-.97-1.479-1.618-.539-.653-1.058-1.369-1.438-2.073C4.196 7.21 4 6.588 4 6.103M16.5 17a1.5 1.5 0 1 0 0-3 1.5 1.5 0 0 0 0 3"
  />
  <path
    fill="currentColor"
    d="M16.5 23.338c.478-.425.956-.848 1.409-1.3a25 25 0 0 0 1.612-1.763c.586-.71 1.192-1.537 1.656-2.398.456-.846.823-1.81.823-2.774C22 12.2 19.448 10 16.5 10S11 12.2 11 15.103c0 .963.367 1.928.823 2.774.464.86 1.07 1.688 1.656 2.398a25 25 0 0 0 1.612 1.763c.454.452.931.875 1.409 1.3M13 15.103C13 13.474 14.478 12 16.5 12s3.5 1.474 3.5 3.103c0 .485-.196 1.106-.583 1.825-.38.704-.899 1.42-1.438 2.073a23 23 0 0 1-1.479 1.618c-.406-.405-.944-.97-1.479-1.618-.539-.653-1.058-1.369-1.438-2.073-.387-.719-.583-1.34-.583-1.825"
  />
</svg>
