<svg xmlns="http://www.w3.org/2000/svg" width="24" height="24" fill="none">
  <path fill="currentColor" d="M12 14a2 2 0 1 0 0-4 2 2 0 0 0 0 4" />
  <path
    fill="currentColor"
    d="M11.223 19.93q.387-.302.777-.663.39.36.777.664c.795.626 1.59 1.083 2.339 1.306.75.224 1.498.223 2.134-.144s1.01-1.015 1.192-1.776c.18-.76.182-1.677.038-2.679q-.07-.487-.187-1.005.508-.158.964-.34c.94-.376 1.733-.836 2.3-1.373.569-.537.943-1.186.943-1.92s-.374-1.383-.942-1.92-1.362-.997-2.301-1.373a13 13 0 0 0-.964-.34q.117-.519.187-1.005c.144-1.002.143-1.92-.038-2.68s-.556-1.408-1.192-1.775-1.384-.368-2.134-.144c-.748.223-1.544.68-2.339 1.306a13 13 0 0 0-.777.664q-.39-.36-.777-.664c-.795-.626-1.59-1.083-2.339-1.306-.75-.224-1.498-.223-2.134.144S5.74 3.922 5.558 4.683c-.18.76-.182 1.677-.038 2.679q.071.487.187 1.005-.508.158-.964.34c-.94.376-1.733.836-2.3 1.373-.569.537-.943 1.186-.943 1.92s.374 1.383.942 1.92 1.362.997 2.301 1.373q.457.182.964.34-.117.519-.187 1.005c-.144 1.002-.143 1.92.038 2.68.182.76.556 1.408 1.192 1.775s1.385.368 2.134.144c.749-.223 1.544-.68 2.34-1.306m-3.973.297c-.32-.185-.577-.547-.719-1.142s-.155-1.377-.021-2.304q.06-.425.162-.88a21 21 0 0 0 2.803.473 21 21 0 0 0 1.811 2.19q-.344.315-.681.581c-.736.58-1.42.96-2.006 1.134s-1.028.134-1.349-.052M12 17.864q-.605-.631-1.2-1.392a26 26 0 0 0 2.401 0c-.397.506-.8.972-1.2 1.392m5.49-1.083c.134.927.121 1.709-.02 2.304-.142.595-.399.957-.72 1.142-.32.186-.763.226-1.348.052-.587-.175-1.27-.555-2.007-1.134q-.337-.265-.68-.58a21 21 0 0 0 1.81-2.191c.998-.102 1.94-.262 2.803-.473q.101.455.162.88m1.395-2.417q-.398.159-.843.3A21 21 0 0 0 17.051 12c.41-.915.743-1.811.991-2.664q.445.141.843.3c.87.348 1.54.75 1.986 1.17.443.42.629.824.629 1.194s-.186.774-.63 1.194-1.115.822-1.985 1.17m-1.806.568c-.565.138-1.17.254-1.806.344a26 26 0 0 0 1.2-2.08q.36.897.606 1.736M15.03 13.75a24 24 0 0 1-1.056 1.67 24 24 0 0 1-3.95 0A24 24 0 0 1 8.051 12a24 24 0 0 1 1.974-3.42 24 24 0 0 1 3.95 0A24 24 0 0 1 15.95 12a24 24 0 0 1-.919 1.75m2.048-4.682c-.163.558-.365 1.14-.605 1.736a26 26 0 0 0-1.201-2.08c.636.09 1.241.206 1.806.344m.25-.969a21 21 0 0 0-2.804-.473 21 21 0 0 0-1.81-2.19q.343-.315.68-.581c.737-.58 1.42-.96 2.007-1.134.585-.174 1.027-.133 1.348.052s.578.548.72 1.142c.141.595.154 1.377.02 2.304q-.06.425-.162.88m-6.724-3.244q.337.265.681.58a21 21 0 0 0-1.811 2.191c-.998.102-1.94.262-2.803.473a12 12 0 0 1-.162-.88c-.134-.927-.12-1.709.021-2.304.142-.594.398-.957.72-1.142.32-.185.762-.226 1.348-.052s1.27.555 2.006 1.134m-5.49 4.78q.398-.158.843-.3c.249.854.58 1.75.991 2.665-.41.915-.742 1.811-.991 2.664a12 12 0 0 1-.843-.3c-.87-.348-1.54-.75-1.986-1.17-.443-.42-.629-.824-.629-1.194s.186-.774.63-1.194 1.115-.822 1.985-1.17m1.806-.567q.85-.208 1.807-.344a26 26 0 0 0-1.201 2.08 19 19 0 0 1-.606-1.736m0 5.864c.163-.558.366-1.14.606-1.736a26 26 0 0 0 1.2 2.08 19 19 0 0 1-1.806-.344m6.28-7.404a26 26 0 0 0-2.402 0c.397-.506.8-.972 1.201-1.392q.604.632 1.201 1.392"
  />
</svg>
