<svg xmlns="http://www.w3.org/2000/svg" width="24" height="24" fill="none">
  <path
    fill="currentColor"
    d="M16 9.5a1.5 1.5 0 1 1-3 0 1.5 1.5 0 0 1 3 0M9.5 11a1.5 1.5 0 1 0 0-3 1.5 1.5 0 0 0 0 3"
  />
  <path
    fill="currentColor"
    fill-rule="evenodd"
    d="M11 4V2h2v2h6l1 1v5a5 5 0 0 1-5 5H9a5 5 0 0 1-5-5V5l1-1zM6 6v4a3 3 0 0 0 3 3h6a3 3 0 0 0 3-3V6z"
    clip-rule="evenodd"
  />
  <path
    fill="currentColor"
    d="M8 16a5 5 0 0 0-5 5v1h2v-1a3 3 0 0 1 3-3h8a3 3 0 0 1 3 3v1h2v-1a5 5 0 0 0-5-5z"
  />
</svg>
