<svg xmlns="http://www.w3.org/2000/svg" width="24" height="24" fill="none">
  <path fill="currentColor" d="M13 13a1 1 0 1 1-2 0 1 1 0 0 1 2 0" />
  <path
    fill="currentColor"
    fill-rule="evenodd"
    d="M12 9a4 4 0 1 0 0 8 4 4 0 0 0 0-8m-2 4a2 2 0 1 1 4 0 2 2 0 0 1-4 0"
    clip-rule="evenodd"
  />
  <path
    fill="currentColor"
    fill-rule="evenodd"
    d="M11 2v2H8a5 5 0 0 0-5 5v12l1 1h16l1-1V9a5 5 0 0 0-5-5h-3V2zM5 9a3 3 0 0 1 3-3h8a3 3 0 0 1 3 3v11H5z"
    clip-rule="evenodd"
  />
</svg>
