<svg xmlns="http://www.w3.org/2000/svg" width="24" height="24" fill="none">
  <path
    fill="currentColor"
    fill-rule="evenodd"
    d="m5.2 20.776 1.572-2.72A8 8 0 0 1 4.14 13.5H1v-3h3.14a8 8 0 0 1 2.632-4.555L5.2 3.224l2.598-1.5 1.57 2.719A8 8 0 0 1 12 4c.922 0 1.807.156 2.631.443l1.57-2.72 2.598 1.5-1.57 2.722a8 8 0 0 1 2.63 4.555H23v3h-3.14a8 8 0 0 1-2.632 4.555l1.571 2.721-2.598 1.5-1.57-2.719A8 8 0 0 1 12 20a8 8 0 0 1-2.631-.443l-1.57 2.72zM15 12a3 3 0 1 1-6 0 3 3 0 0 1 6 0"
    clip-rule="evenodd"
  />
</svg>
