<svg xmlns="http://www.w3.org/2000/svg" width="24" height="24" fill="none">
  <path
    fill="currentColor"
    d="M14 1h-4v2H5L4 4v6.185l-1.267.351-.692 1.246L3.87 18H4c.652 0 1.282-.089 1.88-.255l-1.634-5.553L12 10.038l7.818 2.172-1.254 5.643q.696.146 1.436.147h.58l1.397-6.283-.709-1.18L20 10.184V4l-1-1h-5zm4 4v4.629l-6-1.667L6 9.63V5zm-6 15c-1.277 0-2.47-.34-3.5-.936l-.5-.29-.5.29A6.96 6.96 0 0 1 4 20H2v2h2a9 9 0 0 0 4-.936c1.206.6 2.565.936 4 .936a9 9 0 0 0 4-.936c1.206.6 2.565.936 4 .936h2v-2h-2c-1.277 0-2.47-.34-3.5-.936l-.5-.29-.5.29A6.96 6.96 0 0 1 12 20"
  />
  <path fill="currentColor" d="M12 18h-.074l.104-.016.073.015z" />
</svg>
