<svg xmlns="http://www.w3.org/2000/svg" width="24" height="24" fill="none">
  <path
    fill="currentColor"
    fill-rule="evenodd"
    d="m12 7.388-1.349 2.924-.79.574-3.199.38 2.365 2.186.302.93L8.7 17.54l2.81-1.574h.978l2.81 1.574-.628-3.16.302-.929 2.365-2.186-3.199-.38-.79-.574zM9.07 8.966l2.022-4.385h1.816l2.023 4.385 4.795.569.562 1.727-3.546 3.279.941 4.736-1.47 1.068L12 17.986l-4.214 2.359-1.47-1.068.942-4.736-3.545-3.279.56-1.727z"
    clip-rule="evenodd"
  />
  <path
    fill="currentColor"
    d="M12 5v11.84l-4.702 2.632 1.05-5.285-3.956-3.66 5.351-.634z"
  />
</svg>
