<svg xmlns="http://www.w3.org/2000/svg" width="24" height="24" fill="none">
  <path
    fill="currentColor"
    d="M11 4a5 5 0 0 1 4.733 3.384l.27.79.825-.124Q17.156 8 17.5 8a4.5 4.5 0 0 1 4.495 4.71l-.002.047.002.047Q22 12.901 22 13a4 4 0 0 1-4 4v2a6 6 0 0 0 5.995-6.245Q24 12.627 24 12.5a6.5 6.5 0 0 0-6.673-6.498A7.001 7.001 0 0 0 4.046 8.194 5.502 5.502 0 0 0 5.5 19H6v-2h-.5a3.5 3.5 0 0 1-.39-6.979l.892-.098L6 9a5 5 0 0 1 5-5"
  />
  <path fill="currentColor" d="M13 12.5 8 19h3v4.5l5-6.5h-3z" />
</svg>
