<svg xmlns="http://www.w3.org/2000/svg" width="24" height="24" fill="none">
  <path
    fill="currentColor"
    d="M12 2C6.477 2 2 6.477 2 12s4.477 10 10 10h.1a6.98 6.98 0 0 1-2.1-5c0-1.08.245-2.103.681-3.016l-.004.001c-.2.067-.398.133-.53.133-.265 0-1.323-.795-1.323-1.06v-1.587c0-.265 2.647-1.324 2.911-1.324.133 0 .265.132.397.265.133.132.265.264.397.264h1.465q.286-.136.587-.247c.006-.138-.06-.282-.199-.282-.264 0-.53 0-.53-.265 0-.112.192-.272.391-.44.27-.226.556-.466.404-.618-.162-.163-.525.074-.841.28-.2.13-.38.249-.482.249-.133 0-.331-.132-.53-.265-.198-.132-.397-.264-.53-.264-.132 0-.529.264-.926.529s-.794.53-.926.53c-.265 0-.53-.265-.53-.53s.53-1.324.795-1.324c.264 0 1.852 0 2.117-.264.265-.265.265-1.06 0-1.06-.093 0-.25.066-.428.14-.329.135-.724.297-.895.126-.186-.186 1.058-1.324 1.323-1.324h1.588c.161 0 .842-.42 1.33-.72l.013-.009a8.01 8.01 0 0 1 4.156 5.7c.797.36 1.514.866 2.119 1.483V12c0-5.523-4.477-10-10-10M6.851 18.123a8 8 0 0 1-2.657-4.362c.415.168 1.015.448 1.188.621.133.133.199.397.265.662s.132.53.265.662c.098.098.307.16.53.226.376.112.793.236.793.568 0 .324-.222 1.111-.384 1.623M4.04 11.2a8 8 0 0 1 2.855-5.36c.23.245.605.675.605.866 0 .265-.794 1.853-1.059 1.853-.132 0-.198-.265-.265-.53-.066-.264-.132-.529-.264-.529-.265 0-.794.53-.794.794 0 .132.132.53.264.927.133.397.265.794.265.926 0 .165-.98.725-1.607 1.053"
  />
  <path
    fill="currentColor"
    d="M17 23a6 6 0 1 0 0-12 6 6 0 0 0 0 12m1-9v2h2v2h-4v-4z"
  />
</svg>
