<svg xmlns="http://www.w3.org/2000/svg" width="24" height="24" fill="none">
  <path
    fill="currentColor"
    d="M22 12c0 5.523-4.477 10-10 10a9.95 9.95 0 0 1-5.104-1.399L2 22l1.399-4.896A9.95 9.95 0 0 1 2 12C2 6.477 6.477 2 12 2s10 4.477 10 10M8.392 7.308a1 1 0 0 0-.371.1 1.3 1.3 0 0 0-.294.228 2 2 0 0 0-.23.266A2.8 2.8 0 0 0 6.9 9.62c.002.49.13.967.33 1.413.49 1.083 1.243 2.014 2.079 2.85.177.177.353.353.54.518a9.45 9.45 0 0 0 3.84 2.046l.569.087c.159.008.317 0 .476-.009a2.15 2.15 0 0 0 .913-.235c.176-.094.348-.19.508-.31.135-.1.218-.17.33-.288q.125-.13.21-.302c.078-.163.156-.474.188-.733.022-.183.017-.289.014-.357v-.016c-.005-.107-.093-.218-.19-.265l-.582-.261s-.87-.379-1.402-.621a.5.5 0 0 0-.177-.041.48.48 0 0 0-.378.127v-.002c-.005 0-.07.057-.794.934a.35.35 0 0 1-.295.141c-.18-.012-.354-.117-.516-.187l-.005-.002a6 6 0 0 1-1.57-1c-.532-.468-1.02-1.006-1.383-1.614-.04-.066-.139-.213-.162-.3-.037-.147.062-.265.062-.265s.243-.266.356-.41c.11-.14.203-.276.263-.373.118-.19.155-.385.093-.536q-.42-1.026-.868-2.041c-.06-.133-.234-.23-.393-.249h-.002l-.16-.016a3 3 0 0 0-.403.004"
  />
  <path
    stroke="currentColor"
    stroke-width="2"
    d="M10.601 11.196a6.3 6.3 0 0 0 1.048 1.162h.001c.373.33.794.601 1.248.806.187-.224.309-.368.389-.46q.083-.096.136-.151a1 1 0 0 1 .106-.1c.357-.317.797-.371 1.08-.354zm0 0 .05-.062c.128-.164.243-.33.324-.462.207-.334.4-.878.168-1.442a86 86 0 0 0-.878-2.065 1.4 1.4 0 0 0-.554-.618 1.6 1.6 0 0 0-.64-.22H9.07l-.006-.001c-.05-.006-.124-.015-.203-.02h-.017a4 4 0 0 0-.52.005zm4.538 1.032c.26.118.605.271.888.396l.355.156.105.045.028.013.007.003h.002l.012.006.581.261.013.006.012.005c.207.1.376.25.498.415.12.16.245.405.257.711v.014c.005.097.01.262-.02.519-.039.317-.137.747-.28 1.045v.001c-.1.21-.233.4-.39.563a3.4 3.4 0 0 1-.454.396 5 5 0 0 1-.634.39l-.47-.882zm0 0a1.5 1.5 0 0 0-.53-.13zm-.35 5.297h-.016c-.15.009-.354.02-.568.008h-.007l-.048-.004-.015-.002-.014-.002-.013-.002-.023-.003-.068-.01-.197-.03-.193-.03-.064-.01-.018-.002-.005-.001h-.001l.152-.989-.152.989-.052-.008-.05-.014a10.45 10.45 0 0 1-4.247-2.262zm0 0ZM6.7 7.298l.006-.008c.065-.086.172-.227.335-.381zm0 0a3.8 3.8 0 0 0-.798 2.328M6.7 7.298l.533 3.736m0 0-.912.412a4.5 4.5 0 0 1-.42-1.82m1.332 1.408-.912.412c.559 1.235 1.402 2.264 2.282 3.145m-1.37-3.557 1.37 3.557M5.901 9.626l1-.005zm2.701 4.965.01.009m-.01-.01.01.01m0 0c.17.17.366.366.577.553zm-1.576 4.92-.415.119-3.165.904.904-3.165.119-.415-.22-.371A8.95 8.95 0 0 1 3 12a9 9 0 1 1 9 9c-1.68 0-3.25-.46-4.593-1.258z"
  />
</svg>
