<svg xmlns="http://www.w3.org/2000/svg" width="24" height="24" fill="none">
  <path
    fill="currentColor"
    d="M22 12c0 5.523-4.477 10-10 10a9.95 9.95 0 0 1-5.104-1.399L2 22l1.399-4.896A9.95 9.95 0 0 1 2 12C2 6.477 6.477 2 12 2s10 4.477 10 10M8.392 7.308a1 1 0 0 0-.371.1 1.3 1.3 0 0 0-.294.228 2 2 0 0 0-.23.266l-.031.04A2.73 2.73 0 0 0 6.9 9.62c.002.49.13.967.33 1.413.409.902 1.082 1.857 1.97 2.742l.109.108c.177.177.353.353.54.518a9.45 9.45 0 0 0 3.84 2.046l.569.087c.159.008.317 0 .476-.009l.08-.004a2 2 0 0 0 .833-.231 5 5 0 0 0 .383-.22q.001.002.125-.09c.135-.1.218-.17.33-.288q.125-.13.21-.302c.078-.163.156-.474.188-.733.022-.183.017-.289.014-.357v-.016c-.005-.107-.093-.218-.19-.265l-.582-.261s-.87-.379-1.402-.621a.5.5 0 0 0-.177-.041.48.48 0 0 0-.378.127v-.002c-.005 0-.07.057-.794.934a.35.35 0 0 1-.368.13 1.4 1.4 0 0 1-.191-.067l-.169-.072-.083-.037-.005-.002a6 6 0 0 1-1.933-1.346 6.3 6.3 0 0 1-1.02-1.268l-.03-.048-.029-.047a1 1 0 0 1-.103-.205c-.037-.147.062-.265.062-.265s.243-.266.356-.41c.11-.14.203-.276.263-.373.118-.19.155-.385.093-.536q-.42-1.026-.868-2.041c-.06-.133-.234-.23-.393-.249h-.002l-.16-.016a3 3 0 0 0-.403.004"
  />
</svg>
