<svg xmlns="http://www.w3.org/2000/svg" width="24" height="24" fill="none">
  <path
    fill="currentColor"
    stroke="currentColor"
    stroke-width="2"
    d="M7.04 6.909c.141-.133.306-.28.525-.391a2 2 0 0 1 .757-.207zm0 0c-.163.154-.27.295-.335.381l-.006.008-.026.035.368-.424Zm6.65 9.54-.151.988h.006l.018.003.064.01.193.03.197.03.068.01.023.003.013.002.014.002.015.002.048.004h.007c.214.012.419 0 .568-.007l.016-.001.077-.005a3 3 0 0 0 1.253-.346m-2.428-.726.918-4.35m-.918 4.35-.152.989m.152-.989-.152.989m2.58-.263-.47-.883zm0 0a6 6 0 0 0 .445-.257l.014-.008.013-.01-.56-.828m0 0 .56.829.001-.001.002-.001.004-.003.01-.007.033-.023.112-.081a3.4 3.4 0 0 0 .454-.397c.157-.163.29-.353.39-.563.143-.299.241-.729.28-1.046.03-.257.025-.422.02-.519v-.014a1.3 1.3 0 0 0-.257-.711 1.4 1.4 0 0 0-.498-.415l-.012-.005-.013-.006-.581-.261-.011-.005-.003-.001-.007-.003-.028-.013-.105-.045-.355-.156a78 78 0 0 1-.888-.396m.892 3.843q.001.002.125-.09zm-.891-3.843a1.5 1.5 0 0 0-.531-.13m.53.13-.03.066-.5-.195m.53.129-.03.066-.51-.04.01-.155m-.01.154.01-.154c-.283-.017-.723.037-1.08.355m1.07-.2L8.322 6.31q.261-.018.521-.006h.009l.008.001c.079.005.153.014.203.02h.008c.227.027.448.105.64.221.183.112.417.308.554.618q.453 1.027.878 2.065c.231.564.04 1.108-.168 1.442a5 5 0 0 1-.325.462l-.049.061c.191.28.432.569.72.849l.097.094c.093.09.162.158.232.22.373.33.794.601 1.248.806.187-.224.309-.368.389-.46q.083-.096.136-.151a1 1 0 0 1 .106-.1m1.07-.2-.35-.028a1 1 0 0 0-.72.229m1.07-.2-.431.968-.724-.687q.042-.043.085-.081m-.042 4.975-.05-.014a10.45 10.45 0 0 1-4.247-2.262zm0 0 .052.008m-.052-.008.052.008m-5.043-2.952c-.96-.957-1.71-2.009-2.176-3.04l.912-.411-.912.412a4.5 4.5 0 0 1-.42-1.82m2.596 4.859L6.673 7.333A3.73 3.73 0 0 0 5.9 9.626m2.595 4.859.106.106.01.009m-.116-.115.116.115M5.9 9.626v.001l1-.006-1 .004zM8.61 14.6c.171.17.367.366.578.553zm-1.573 4.92-.415.119-3.165.904.904-3.165.119-.415-.22-.371A8.95 8.95 0 0 1 3 12a9 9 0 1 1 9 9c-1.68 0-3.25-.46-4.593-1.258zm6.134-6.22v.082l-.032.074.011-.157.02.002Zm1.645 3.22-.08.005z"
  />
</svg>
