<svg xmlns="http://www.w3.org/2000/svg" width="24" height="24" fill="none">
  <path fill="currentColor" d="m16 12-6-3.5v7z" />
  <path
    fill="currentColor"
    d="M15.07 4H8.93c-1.355 0-2.471 0-3.355.119-.928.125-1.747.396-2.403 1.053-.657.656-.929 1.475-1.053 2.403-.12.884-.119 2-.119 3.354v2.142c0 1.354 0 2.47.119 3.354.124.928.396 1.747 1.053 2.403.656.657 1.475.928 2.403 1.053.884.12 2 .119 3.354.119h6.142c1.354 0 2.47 0 3.354-.119.928-.125 1.747-.396 2.403-1.053.657-.656.928-1.475 1.053-2.403.12-.884.119-2 .119-3.354V10.93c0-1.355 0-2.471-.119-3.355-.125-.928-.396-1.747-1.053-2.403-.656-.657-1.475-.928-2.403-1.053-.884-.12-2-.119-3.354-.119M4.587 6.586c.222-.223.55-.39 1.255-.485C6.576 6.002 7.558 6 9 6h6c1.442 0 2.424.002 3.159.1.706.096 1.033.263 1.255.486.223.222.39.55.485 1.255.099.735.101 1.717.101 3.159v2c0 1.443-.002 2.424-.1 3.159-.096.706-.263 1.033-.486 1.255-.222.223-.55.39-1.255.485-.735.099-1.716.101-3.159.101H9c-1.442 0-2.424-.002-3.159-.1-.706-.096-1.033-.263-1.255-.486-.223-.222-.39-.55-.485-1.255C4.002 15.424 4 14.443 4 13v-2c0-1.442.002-2.424.1-3.159.096-.706.263-1.033.486-1.255"
  />
</svg>
